<svg width="63" height="64" viewBox="0 0 63 64" fill="none" xmlns="http://www.w3.org/2000/svg">
<rect width="62.5157" height="63.8458" rx="17.2916" fill="#FFF1DA"/>
<path d="M47.0639 44.5474L45.0967 41.7342C45.0459 41.6619 44.9745 41.6027 44.8898 41.5625C44.8051 41.5224 44.7099 41.5027 44.614 41.5055C44.518 41.5083 44.4245 41.5334 44.3429 41.5784C44.2613 41.6234 44.1945 41.6866 44.1491 41.7618L43.9524 42.0886C42.4339 41.1088 41.1273 39.8933 40.0955 38.5009L38.7713 36.7177C38.2912 36.0717 37.6341 35.5447 36.8616 35.1861C36.0891 34.8276 35.2266 34.6494 34.3553 34.6682C33.4839 34.6869 32.6322 34.9021 31.8802 35.2935C31.1282 35.6849 30.5006 36.2396 30.0564 36.9055C28.4907 39.2587 26.1764 41.1483 23.4045 42.3366C23.7486 42.6669 23.9885 43.072 24.0999 43.511C24.2113 43.9499 24.1904 44.4072 24.0391 44.8367C27.5689 43.4576 30.5222 41.1294 32.4826 38.1803C32.6833 37.8798 32.9668 37.6295 33.3063 37.4529C33.6459 37.2764 34.0305 37.1794 34.4238 37.171C34.8172 37.1627 35.2065 37.2433 35.5552 37.4053C35.9039 37.5673 36.2004 37.8053 36.417 38.0971L36.6991 38.4727C35.9183 38.5548 35.1768 38.8224 34.5529 39.2473C33.929 39.6722 33.4456 40.2386 33.1538 40.8869C32.862 41.5353 32.7724 42.2415 32.8946 42.9312C33.0169 43.6209 33.3463 44.2686 33.8482 44.806C34.3502 45.3434 35.006 45.7507 35.7467 45.9849C36.4874 46.2191 37.2856 46.2716 38.057 46.1368C38.8285 46.002 39.5448 45.6849 40.1303 45.219C40.7159 44.753 41.1492 44.1555 41.3844 43.4893C41.7779 43.7777 42.1861 44.0526 42.6092 44.3139L42.3871 44.6814C42.3419 44.7567 42.3198 44.8412 42.323 44.9264C42.3262 45.0116 42.3546 45.0946 42.4053 45.1671C42.456 45.2395 42.5273 45.2988 42.6119 45.3391C42.6966 45.3793 42.7917 45.3991 42.8877 45.3965L46.6148 45.2894C46.7109 45.2869 46.8047 45.262 46.8865 45.2171C46.9684 45.1723 47.0355 45.109 47.081 45.0338C47.1266 44.9585 47.149 44.8739 47.146 44.7886C47.143 44.7032 47.1147 44.62 47.0639 44.5474ZM37.2152 43.7047C36.9084 43.7047 36.6085 43.6239 36.3534 43.4725C36.0983 43.3212 35.8995 43.106 35.7821 42.8543C35.6647 42.6026 35.6339 42.3257 35.6938 42.0585C35.7536 41.7912 35.9014 41.5458 36.1183 41.3532C36.3353 41.1605 36.6117 41.0293 36.9126 40.9762C37.2135 40.923 37.5254 40.9503 37.8088 41.0546C38.0923 41.1588 38.3345 41.3354 38.505 41.5619C38.6754 41.7884 38.7664 42.0547 38.7664 42.3272C38.7664 42.5081 38.7263 42.6872 38.6483 42.8543C38.5704 43.0214 38.4561 43.1733 38.3121 43.3012C38.168 43.4291 37.997 43.5306 37.8088 43.5998C37.6206 43.669 37.4189 43.7047 37.2152 43.7047Z" fill="#0D2043"/>
<path d="M21.2963 46.6244C22.8832 46.6244 24.1696 45.482 24.1696 44.0729C24.1696 42.6638 22.8832 41.5214 21.2963 41.5214C19.7095 41.5214 18.4231 42.6638 18.4231 44.0729C18.4231 45.482 19.7095 46.6244 21.2963 46.6244Z" fill="#6CBCBA"/>
<path d="M22.4675 31.1327C22.7292 31.1327 22.9847 31.2032 23.2004 31.3347C23.4162 31.4663 23.582 31.6528 23.676 31.8696L26.4555 38.2868C26.5057 38.4011 26.5236 38.5247 26.5076 38.6465C26.4917 38.7684 26.4424 38.885 26.364 38.9861C26.2856 39.0871 26.1805 39.1696 26.0579 39.2263C25.9353 39.2829 25.799 39.3121 25.6608 39.3112C25.4891 39.3108 25.3215 39.2643 25.1801 39.1776C25.0388 39.091 24.9303 38.9684 24.869 38.8259L24.4763 37.9068C24.4411 37.8246 24.3786 37.7539 24.2971 37.7041C24.2157 37.6542 24.119 37.6275 24.0201 37.6275H20.9304C20.8325 37.6275 20.7369 37.6536 20.656 37.7024C20.575 37.7512 20.5124 37.8204 20.4763 37.9011L20.0624 38.8328C19.9993 38.9739 19.8899 39.0949 19.7485 39.1802C19.6071 39.2655 19.4401 39.3111 19.2692 39.3112C19.1308 39.3111 18.9946 39.2812 18.8722 39.224C18.7498 39.1667 18.645 39.0839 18.5667 38.9826C18.4884 38.8814 18.439 38.7647 18.4228 38.6427C18.4067 38.5207 18.4242 38.3971 18.4738 38.2824L21.2589 31.869C21.3531 31.6523 21.5189 31.4659 21.7346 31.3345C21.9504 31.203 22.2058 31.1327 22.4675 31.1327ZM22.3222 33.6566L21.3351 35.9057C21.3251 35.9283 21.3215 35.9527 21.3245 35.9769C21.3276 36.001 21.3373 36.0241 21.3527 36.0442C21.3681 36.0642 21.3889 36.0807 21.4131 36.092C21.4373 36.1033 21.4642 36.1092 21.4916 36.1091H23.4659C23.4931 36.1092 23.52 36.1033 23.5442 36.092C23.5683 36.0808 23.5889 36.0644 23.6043 36.0444C23.6197 36.0244 23.6293 36.0013 23.6323 35.9772C23.6354 35.9532 23.6317 35.9288 23.6217 35.9063L22.6346 33.6572C22.6223 33.6294 22.6009 33.6054 22.5731 33.5885C22.5452 33.5716 22.5123 33.5625 22.4786 33.5624C22.4449 33.5624 22.412 33.5713 22.3841 33.5881C22.3562 33.6049 22.3346 33.6288 22.3222 33.6566Z" fill="#029BC5"/>
<path d="M41.8074 38.5479V31.8966C41.8074 31.694 41.898 31.4997 42.0593 31.3564C42.2206 31.2132 42.4394 31.1327 42.6676 31.1327H43.2556C44.0956 31.1327 44.71 31.1809 45.0987 31.2773C45.6126 31.3874 46.0731 31.6412 46.4123 32.0011C46.7374 32.3512 46.9109 32.7929 46.9017 33.2465C46.906 33.5412 46.8296 33.8323 46.6789 34.0949C46.5492 34.3079 46.3764 34.4979 46.1691 34.6553C46.1469 34.6724 46.1298 34.694 46.1191 34.7183C46.1083 34.7426 46.1044 34.7688 46.1075 34.7947C46.1106 34.8207 46.1207 34.8455 46.1369 34.8673C46.1532 34.889 46.1751 34.9069 46.2008 34.9195C46.6361 35.1324 46.9635 35.3874 47.183 35.6846C47.4485 36.0555 47.5837 36.4882 47.5715 36.9275C47.5763 37.3719 47.437 37.8081 47.1703 38.1841C46.9214 38.5469 46.5631 38.8406 46.1359 39.0319C45.7129 39.2193 45.13 39.3128 44.3873 39.3124H42.6648C42.437 39.3118 42.2188 39.2309 42.0581 39.0876C41.8973 38.9443 41.8072 38.7502 41.8074 38.5479ZM43.5581 32.9403V34.0173C43.558 34.0597 43.5674 34.1018 43.5856 34.1411C43.6039 34.1804 43.6306 34.216 43.6644 34.2461C43.6982 34.2762 43.7384 34.3 43.7826 34.3163C43.8267 34.3326 43.8741 34.341 43.9219 34.341H43.9417C44.369 34.341 44.6863 34.2612 44.8936 34.1018C44.9971 34.0211 45.0789 33.9207 45.1327 33.808C45.1865 33.6954 45.2111 33.5735 45.2045 33.4512C45.2102 33.3366 45.1866 33.2222 45.1354 33.1168C45.0843 33.0114 45.0069 32.9177 44.9091 32.8426C44.7121 32.6924 44.4127 32.6172 44.0108 32.6172H43.9227C43.8748 32.6172 43.8274 32.6255 43.7832 32.6417C43.739 32.6579 43.6988 32.6816 43.6649 32.7116C43.6311 32.7417 43.6042 32.7773 43.5859 32.8165C43.5676 32.8558 43.5581 32.8978 43.5581 32.9403ZM43.5581 36.0541V37.5035C43.5589 37.5889 43.5976 37.6705 43.6659 37.7306C43.7342 37.7907 43.8265 37.8243 43.9227 37.8241H43.9981C44.7262 37.8241 45.217 37.7427 45.4703 37.5799C45.7237 37.4171 45.8504 37.1798 45.8504 36.868C45.8562 36.7078 45.8187 36.5486 45.7409 36.4039C45.6631 36.2592 45.5474 36.1332 45.4033 36.0365C45.1058 35.8332 44.6122 35.7314 43.9227 35.731C43.8748 35.7309 43.8274 35.7392 43.7832 35.7554C43.739 35.7716 43.6988 35.7954 43.6649 35.8254C43.6311 35.8554 43.6042 35.891 43.5859 35.9303C43.5676 35.9695 43.5581 36.0116 43.5581 36.0541Z" fill="#60A5FA"/>
<path d="M22.4675 16.3761C22.7292 16.3763 22.9848 16.4468 23.2005 16.5785C23.4162 16.7102 23.582 16.8967 23.676 17.1137L26.4555 23.5302C26.5059 23.6446 26.5239 23.7682 26.508 23.8901C26.4921 24.0121 26.4428 24.1288 26.3644 24.2299C26.286 24.3311 26.1809 24.4136 26.0582 24.4703C25.9356 24.527 25.7991 24.5562 25.6608 24.5552C25.4885 24.5556 25.3201 24.5092 25.1782 24.4223C25.0363 24.3353 24.9277 24.212 24.8669 24.0687L24.4742 23.1495C24.4389 23.0675 24.3764 22.9968 24.295 22.9469C24.2135 22.8971 24.1169 22.8704 24.018 22.8703H20.9304C20.8325 22.8704 20.7369 22.8966 20.6559 22.9455C20.575 22.9944 20.5124 23.0637 20.4763 23.1445L20.0624 24.0762C19.9993 24.2174 19.89 24.3385 19.7486 24.4239C19.6072 24.5093 19.4402 24.555 19.2692 24.5552C19.1308 24.5552 18.9944 24.5253 18.872 24.468C18.7495 24.4107 18.6446 24.3278 18.5663 24.2265C18.488 24.1251 18.4387 24.0084 18.4225 23.8863C18.4064 23.7642 18.424 23.6405 18.4738 23.5258L21.259 17.1124C21.3532 16.8957 21.519 16.7094 21.7347 16.578C21.9504 16.4466 22.2059 16.3762 22.4675 16.3761ZM22.3222 18.9006L21.3351 21.1497C21.3252 21.1723 21.3217 21.1967 21.3249 21.2207C21.328 21.2448 21.3377 21.2678 21.3531 21.2878C21.3686 21.3077 21.3892 21.3241 21.4134 21.3354C21.4375 21.3467 21.4644 21.3526 21.4916 21.3526H23.4659C23.4927 21.3518 23.5189 21.3454 23.5423 21.3337C23.5657 21.3221 23.5856 21.3056 23.6003 21.2858C23.615 21.2659 23.6242 21.2431 23.6269 21.2194C23.6296 21.1958 23.6259 21.1718 23.6161 21.1497L22.629 18.9006C22.6158 18.8743 22.5943 18.8519 22.567 18.8362C22.5398 18.8205 22.5081 18.8121 22.4756 18.8121C22.4431 18.8121 22.4114 18.8205 22.3841 18.8362C22.3569 18.8519 22.3354 18.8743 22.3222 18.9006Z" fill="#029BC5"/>
<path d="M41.8074 23.7913V17.14C41.8074 16.9374 41.898 16.7431 42.0593 16.5998C42.2206 16.4566 42.4394 16.3761 42.6676 16.3761H43.2556C44.0956 16.3761 44.71 16.4243 45.0987 16.5207C45.6501 16.651 46.0889 16.892 46.4152 17.2439C46.7404 17.5939 46.914 18.0356 46.9045 18.4893C46.9087 18.7837 46.8323 19.0747 46.6817 19.3371C46.5522 19.5502 46.3793 19.7402 46.1719 19.8974C46.1498 19.9146 46.1326 19.9363 46.1219 19.9606C46.1112 19.985 46.1072 20.0112 46.1103 20.0372C46.1134 20.0632 46.1235 20.0881 46.1398 20.1099C46.156 20.1316 46.1779 20.1496 46.2036 20.1623C46.6389 20.3752 46.9663 20.6302 47.1858 20.9274C47.4506 21.2987 47.5849 21.7316 47.5715 22.1709C47.5763 22.6153 47.437 23.0515 47.1703 23.4275C46.9214 23.7903 46.5631 24.084 46.1359 24.2753C45.7129 24.4627 45.13 24.5565 44.3873 24.5565H42.6648C42.4369 24.5558 42.2186 24.4748 42.0578 24.3314C41.8971 24.1879 41.807 23.9937 41.8074 23.7913ZM43.5609 18.1844V19.2613C43.5609 19.3467 43.599 19.4285 43.6668 19.4891C43.7345 19.5496 43.8265 19.5839 43.9227 19.5844H43.9424C44.3697 19.5844 44.687 19.5046 44.8943 19.3452C44.9978 19.2645 45.0796 19.1641 45.1334 19.0515C45.1872 18.9388 45.2118 18.8169 45.2052 18.6946C45.2108 18.58 45.1871 18.4657 45.1359 18.3603C45.0848 18.255 45.0075 18.1612 44.9098 18.0861C44.7128 17.9358 44.4134 17.8606 44.0115 17.8606H43.9227C43.826 17.8606 43.7333 17.8948 43.6649 17.9555C43.5965 18.0162 43.5581 18.0985 43.5581 18.1844H43.5609ZM43.5609 21.2981V22.7469C43.5608 22.7894 43.5702 22.8315 43.5884 22.8708C43.6067 22.91 43.6335 22.9457 43.6673 22.9758C43.701 23.0059 43.7412 23.0297 43.7854 23.046C43.8296 23.0623 43.8769 23.0707 43.9248 23.0707H44.0002C44.7283 23.0707 45.2191 22.989 45.4724 22.8258C45.7258 22.6626 45.8525 22.4253 45.8525 22.1139C45.8586 21.9531 45.8209 21.7933 45.7427 21.6482C45.6645 21.503 45.5481 21.3767 45.4033 21.2799C45.1058 21.0766 44.6122 20.9748 43.9227 20.9744C43.8748 20.9743 43.8273 20.9826 43.783 20.9989C43.7388 21.0151 43.6985 21.0389 43.6647 21.069C43.6308 21.0991 43.604 21.1348 43.5857 21.1741C43.5674 21.2134 43.558 21.2556 43.5581 21.2981H43.5609Z" fill="#60A5FA"/>
<path d="M44.5212 28.1968L41.2919 29.8529C41.2089 29.8954 41.1147 29.9179 41.0189 29.918C40.923 29.918 40.8288 29.8958 40.7457 29.8533C40.6626 29.8109 40.5935 29.7499 40.5453 29.6763C40.4971 29.6027 40.4716 29.5191 40.4712 29.434V29.0301H26.0217C26.2639 28.6478 26.3912 28.2165 26.3912 27.7779C26.3912 27.3392 26.2639 26.9079 26.0217 26.5256H40.4712V26.1218C40.4712 26.0365 40.4965 25.9527 40.5445 25.8788C40.5925 25.805 40.6616 25.7437 40.7448 25.701C40.828 25.6584 40.9223 25.6359 41.0184 25.6359C41.1144 25.6359 41.2087 25.6584 41.2919 25.701L44.5212 27.3571C44.6041 27.3998 44.6729 27.461 44.7207 27.5347C44.7685 27.6084 44.7937 27.6919 44.7937 27.7769C44.7937 27.862 44.7685 27.9455 44.7207 28.0192C44.6729 28.0929 44.6041 28.1541 44.5212 28.1968Z" fill="#0D2043"/>
<path d="M23.518 30.3275C25.1049 30.3275 26.3913 29.1852 26.3913 27.776C26.3913 26.3669 25.1049 25.2245 23.518 25.2245C21.9312 25.2245 20.6448 26.3669 20.6448 27.776C20.6448 29.1852 21.9312 30.3275 23.518 30.3275Z" fill="#74D1D1"/>
<path d="M24.0391 44.8367C24.1897 44.4077 24.2103 43.951 24.0989 43.5127C23.9875 43.0743 23.748 42.6697 23.4045 42.3397C23.97 42.0982 24.5184 41.8264 25.0467 41.5258C25.7236 42.1373 26.4287 42.7237 27.162 43.2852C26.1802 43.8911 25.1343 44.4107 24.0391 44.8367Z" fill="#3F4449"/>
<path d="M21.3838 37.6269H20.9297C20.8319 37.6269 20.7363 37.653 20.6554 37.7019C20.5746 37.7509 20.5122 37.8203 20.4764 37.9011L20.0618 38.8328C19.9763 39.0157 19.8136 39.1616 19.6085 39.2392C19.4033 39.3168 19.1721 39.32 18.9644 39.248C18.7567 39.176 18.589 39.0346 18.4973 38.8541C18.4056 38.6736 18.3972 38.4684 18.4739 38.2824L19.7431 35.3628C20.2535 36.14 20.8005 36.8947 21.3838 37.6269Z" fill="#88BFAC"/>
<path d="M37.2152 46.5849C36.0503 46.5852 34.9251 46.2089 34.0498 45.5263C33.1745 44.8437 32.609 43.9014 32.4589 42.8755C32.3089 41.8497 32.5846 40.8104 33.2345 39.9519C33.8844 39.0934 34.8641 38.4743 35.9905 38.2104C35.802 37.9908 35.5557 37.8157 35.2731 37.7004C34.9906 37.5851 34.6805 37.5331 34.3701 37.5491C34.0597 37.565 33.7584 37.6484 33.4928 37.7919C33.2271 37.9353 33.0052 38.1345 32.8465 38.372C30.8438 41.3893 27.8224 43.7703 24.2105 45.1773C24.1362 45.2063 24.054 45.2157 23.9739 45.2043C23.8937 45.193 23.8189 45.1614 23.7584 45.1134C23.6979 45.0653 23.6542 45.0028 23.6326 44.9333C23.611 44.8639 23.6124 44.7903 23.6365 44.7215C23.764 44.3555 23.7808 43.9662 23.6854 43.5925C23.59 43.2189 23.3857 42.8741 23.0929 42.5927C23.0478 42.5496 23.0147 42.4977 22.9964 42.4412C22.978 42.3847 22.9748 42.3251 22.9871 42.2673C22.9993 42.2095 23.0267 42.155 23.0671 42.1083C23.1074 42.0617 23.1595 42.024 23.2191 41.9985C25.9174 40.8429 28.1699 39.0036 29.6926 36.7127C30.1732 35.9913 30.8525 35.3903 31.6667 34.9662C32.4809 34.5422 33.4032 34.309 34.3469 34.2886C35.2905 34.2683 36.2244 34.4614 37.0609 34.8499C37.8973 35.2383 38.6087 35.8094 39.1281 36.5092L40.4523 38.2924C41.367 39.5267 42.5043 40.6189 43.8184 41.5251C43.9068 41.4026 44.0286 41.3019 44.1726 41.2325C44.3166 41.163 44.478 41.1271 44.6419 41.128C44.8057 41.1288 44.9666 41.1665 45.1097 41.2375C45.2527 41.3085 45.3732 41.4104 45.4599 41.5339L47.4271 44.3477C47.5167 44.4761 47.5667 44.6232 47.5721 44.7742C47.5775 44.9253 47.538 45.0749 47.4578 45.2081C47.3775 45.3413 47.2591 45.4534 47.1147 45.5332C46.9702 45.6129 46.8046 45.6576 46.6346 45.6626L42.9074 45.7697C42.7375 45.7744 42.5691 45.7394 42.4192 45.6682C42.2693 45.5971 42.143 45.4922 42.0531 45.364C41.9631 45.2359 41.9126 45.0891 41.9066 44.9382C41.9007 44.7873 41.9394 44.6377 42.019 44.5042L42.0649 44.4285C41.9013 44.3227 41.7377 44.2144 41.5769 44.1029C41.1959 44.8454 40.5816 45.4745 39.808 45.9147C39.0343 46.3549 38.1341 46.5876 37.2152 46.5849ZM34.483 36.7947C34.9373 36.791 35.3854 36.8895 35.7853 37.081C36.1852 37.2725 36.5241 37.5507 36.7703 37.8898L37.0523 38.2655C37.0919 38.319 37.1154 38.3805 37.1206 38.4443C37.1259 38.5081 37.1127 38.5721 37.0823 38.6301C37.052 38.6881 37.0054 38.7382 36.9471 38.7758C36.8888 38.8133 36.8207 38.8371 36.7492 38.8447C36.0442 38.9196 35.3751 39.1619 34.8122 39.5461C34.2493 39.9303 33.8135 40.4422 33.5506 41.0278C33.2877 41.6134 33.2075 42.2512 33.3184 42.8739C33.4293 43.4966 33.7272 44.0812 34.1808 44.5662C34.6344 45.0512 35.2268 45.4187 35.8957 45.6299C36.5646 45.8411 37.2853 45.8882 37.9819 45.7663C38.6784 45.6444 39.3251 45.358 39.8538 44.9372C40.3825 44.5165 40.7736 43.9769 40.9861 43.3753C41.0068 43.3165 41.0435 43.2632 41.093 43.2199C41.1424 43.1767 41.2031 43.1449 41.2696 43.1274C41.3361 43.1099 41.4065 43.1072 41.4745 43.1195C41.5424 43.1319 41.606 43.1589 41.6594 43.1981C42.0465 43.4824 42.4491 43.7535 42.8581 44.004C42.9433 44.0565 43.0039 44.135 43.0282 44.2246C43.0525 44.3142 43.0389 44.4086 42.9899 44.4898L42.7678 44.8574C42.7574 44.8744 42.7523 44.8937 42.7532 44.9131C42.7541 44.9325 42.7608 44.9513 42.7728 44.9676C42.7837 44.9844 42.7998 44.9982 42.8191 45.0074C42.8384 45.0166 42.8602 45.0208 42.8821 45.0196L46.6021 44.9137C46.6239 44.9137 46.6453 44.9083 46.6638 44.8981C46.6824 44.888 46.6974 44.8734 46.7072 44.8561C46.7179 44.8391 46.7232 44.8198 46.7226 44.8003C46.722 44.7808 46.7154 44.7618 46.7037 44.7453L44.7365 41.9321C44.725 41.9156 44.7087 41.9021 44.6894 41.8931C44.67 41.884 44.6483 41.8798 44.6265 41.8808C44.6045 41.8809 44.583 41.8864 44.5643 41.8967C44.5457 41.9069 44.5306 41.9216 44.5207 41.939L44.3247 42.2658C44.296 42.3132 44.2563 42.3545 44.2081 42.387C44.16 42.4195 44.1045 42.4425 44.0455 42.4544C43.9865 42.4662 43.9253 42.4667 43.8661 42.4558C43.8068 42.4449 43.7509 42.4228 43.7021 42.3911C42.1431 41.3844 40.8014 40.1361 39.7416 38.7063L38.4174 36.9231C37.977 36.3302 37.374 35.8464 36.6651 35.5172C35.9563 35.1881 35.1648 35.0244 34.3652 35.0415C33.5655 35.0586 32.7838 35.2559 32.0936 35.615C31.4034 35.974 30.8274 36.483 30.4195 37.094C28.9016 39.3759 26.6962 41.2361 24.0518 42.465C24.4048 42.9421 24.5924 43.5007 24.5912 44.0716V44.1899C27.7276 42.8179 30.3442 40.6622 32.1195 37.9875C32.3533 37.6294 32.6876 37.3312 33.0898 37.122C33.4921 36.9129 33.9485 36.7999 34.4146 36.7941L34.483 36.7947ZM37.2152 44.0804C36.8248 44.0804 36.4431 43.9775 36.1184 43.7849C35.7937 43.5923 35.5407 43.3185 35.3912 42.9981C35.2418 42.6778 35.2027 42.3253 35.2789 41.9852C35.3551 41.6451 35.5431 41.3327 35.8192 41.0875C36.0953 40.8424 36.4471 40.6754 36.8301 40.6077C37.213 40.5401 37.61 40.5748 37.9707 40.7075C38.3315 40.8402 38.6398 41.0649 38.8568 41.3532C39.0737 41.6415 39.1895 41.9805 39.1895 42.3272C39.1895 42.7922 38.9815 43.2381 38.6112 43.5669C38.241 43.8957 37.7388 44.0804 37.2152 44.0804ZM37.2152 41.3254C36.9921 41.3254 36.774 41.3842 36.5885 41.4942C36.4029 41.6043 36.2583 41.7608 36.173 41.9438C36.0876 42.1269 36.0652 42.3283 36.1088 42.5226C36.1523 42.717 36.2597 42.8955 36.4175 43.0356C36.5753 43.1757 36.7763 43.2711 36.9951 43.3098C37.214 43.3484 37.4408 43.3286 37.6469 43.2527C37.8531 43.1769 38.0293 43.0485 38.1532 42.8838C38.2772 42.719 38.3434 42.5253 38.3434 42.3272C38.3434 42.0615 38.2245 41.8067 38.0129 41.6188C37.8014 41.4309 37.5144 41.3254 37.2152 41.3254Z" fill="#0D2043"/>
<path d="M21.2963 47C20.6444 47 20.0071 46.8283 19.465 46.5067C18.9229 46.1851 18.5004 45.7279 18.2509 45.193C18.0014 44.6582 17.9362 44.0696 18.0633 43.5018C18.1905 42.934 18.5045 42.4124 18.9655 42.0031C19.4265 41.5937 20.0138 41.3149 20.6532 41.202C21.2927 41.089 21.9554 41.147 22.5578 41.3685C23.1601 41.5901 23.6749 41.9653 24.0371 42.4466C24.3993 42.928 24.5926 43.4939 24.5926 44.0729C24.5915 44.8489 24.2439 45.5928 23.6259 46.1416C23.008 46.6903 22.1702 46.999 21.2963 47ZM21.2963 41.8971C20.8117 41.8971 20.338 42.0247 19.9351 42.2638C19.5321 42.5028 19.2181 42.8426 19.0326 43.2402C18.8472 43.6378 18.7987 44.0753 18.8932 44.4973C18.9877 44.9194 19.2211 45.3071 19.5638 45.6114C19.9064 45.9157 20.343 46.1229 20.8183 46.2068C21.2936 46.2908 21.7862 46.2477 22.234 46.083C22.6817 45.9183 23.0643 45.6395 23.3336 45.2817C23.6028 44.9239 23.7465 44.5032 23.7465 44.0729C23.7459 43.496 23.4876 42.9428 23.0282 42.5349C22.5689 42.127 21.946 41.8976 21.2963 41.8971ZM25.6608 39.6868C25.403 39.6861 25.1515 39.6161 24.9392 39.4862C24.727 39.3562 24.5639 39.1723 24.4713 38.9586L24.0786 38.0395C24.0739 38.0286 24.0656 38.0193 24.0548 38.0127C24.0439 38.0061 24.0311 38.0025 24.018 38.0026H20.9304C20.9173 38.0024 20.9045 38.0058 20.8937 38.0123C20.8828 38.0188 20.8745 38.0281 20.8697 38.0389L20.4558 38.9705C20.3289 39.2454 20.0855 39.465 19.778 39.582C19.4706 39.699 19.1236 39.7041 18.812 39.5961C18.5004 39.4881 18.249 39.2757 18.112 39.0047C17.975 38.7337 17.9634 38.4257 18.0797 38.1472L20.8662 31.7338C20.991 31.4461 21.211 31.1988 21.4972 31.0244C21.7835 30.8499 22.1224 30.7566 22.4696 30.7566C22.8167 30.7566 23.1557 30.8499 23.4419 31.0244C23.7281 31.1988 23.9481 31.4461 24.073 31.7338L26.8524 38.1503C26.9278 38.3218 26.9546 38.507 26.9307 38.6898C26.9068 38.8727 26.8329 39.0475 26.7153 39.1991C26.5977 39.3506 26.4402 39.4744 26.2564 39.5594C26.0726 39.6444 25.8681 39.6882 25.6608 39.6868ZM20.9283 37.2512H24.018C24.2025 37.252 24.3824 37.3022 24.5342 37.3952C24.6861 37.4883 24.8027 37.6199 24.869 37.7728L25.2625 38.6919C25.2935 38.7634 25.3482 38.8249 25.4193 38.8684C25.4903 38.9118 25.5745 38.9352 25.6608 38.9355C25.7302 38.9361 25.7987 38.9216 25.8603 38.8932C25.9219 38.8648 25.9746 38.8233 26.0139 38.7725C26.0532 38.7218 26.0778 38.6632 26.0856 38.6019C26.0934 38.5407 26.0841 38.4787 26.0585 38.4214L23.2811 32.0049C23.218 31.8587 23.1064 31.733 22.9612 31.6443C22.8159 31.5556 22.6438 31.5082 22.4675 31.5082C22.2912 31.5082 22.119 31.5556 21.9738 31.6443C21.8285 31.733 21.7169 31.8587 21.6538 32.0049L18.8687 38.417C18.8336 38.5099 18.8401 38.6111 18.8868 38.6997C18.9335 38.7884 19.0168 38.8578 19.1194 38.8934C19.2221 38.9291 19.3363 38.9283 19.4383 38.8912C19.5403 38.8542 19.6224 38.7837 19.6675 38.6944L20.0828 37.7615C20.1496 37.6104 20.2663 37.4808 20.4176 37.3897C20.5688 37.2986 20.7476 37.2504 20.9304 37.2512H20.9283ZM23.4602 36.4848H21.486C21.39 36.4845 21.2955 36.4635 21.2107 36.4235C21.1259 36.3835 21.0533 36.3258 20.9992 36.2554C20.9452 36.1849 20.9112 36.1038 20.9003 36.0191C20.8894 35.9344 20.9019 35.8486 20.9367 35.7692L21.9238 33.5201C21.9667 33.4216 22.0422 33.3369 22.1404 33.2773C22.2386 33.2177 22.3549 33.186 22.4738 33.1864C22.5929 33.186 22.7092 33.2177 22.8075 33.2775C22.9057 33.3372 22.9811 33.422 23.0238 33.5207L24.0109 35.7698C24.0456 35.8493 24.058 35.9351 24.0469 36.0199C24.0359 36.1046 24.0018 36.1856 23.9476 36.256C23.8934 36.3264 23.8207 36.3841 23.7357 36.4239C23.6508 36.4638 23.5563 36.4847 23.4602 36.4848ZM21.8604 35.7335H23.0865L22.4752 34.336L21.8604 35.7335ZM44.3874 39.6868H42.6649C42.3252 39.6858 41.9999 39.5655 41.7599 39.352C41.52 39.1386 41.385 38.8495 41.3844 38.5479V31.8966C41.3848 31.5944 41.5201 31.3048 41.7607 31.0911C42.0013 30.8775 42.3274 30.7573 42.6677 30.757H43.2557C44.1427 30.757 44.783 30.809 45.2124 30.9154C45.8111 31.0453 46.3475 31.3417 46.7431 31.7613C47.1303 32.1786 47.3377 32.7046 47.3283 33.2452C47.3408 33.798 47.1089 34.3332 46.6825 34.736C47.0999 34.9659 47.4415 35.2896 47.6725 35.6745C47.9036 36.0594 48.0159 36.4916 47.9982 36.9275C48.0025 37.4425 47.8408 37.9478 47.5321 38.3839C47.2418 38.805 46.825 39.1458 46.3285 39.3681C45.8392 39.5823 45.2053 39.6868 44.3874 39.6868ZM42.6649 31.5084C42.549 31.5085 42.4379 31.5495 42.3559 31.6222C42.274 31.695 42.2279 31.7937 42.2277 31.8966V38.5479C42.2279 38.6508 42.274 38.7493 42.356 38.822C42.4379 38.8947 42.549 38.9355 42.6649 38.9355H44.3874C45.0615 38.9355 45.5861 38.8547 45.9471 38.6944C46.3056 38.5345 46.606 38.288 46.8136 37.9831C47.0386 37.6672 47.1554 37.3 47.1499 36.9262C47.1499 36.5193 47.0456 36.1799 46.8305 35.8894C46.6507 35.6458 46.3701 35.4298 45.9978 35.2476C45.9123 35.206 45.8394 35.1467 45.7852 35.0748C45.731 35.0028 45.6972 34.9203 45.6866 34.8343C45.676 34.7482 45.689 34.6612 45.7244 34.5805C45.7598 34.4999 45.8166 34.428 45.8899 34.371C46.0584 34.2439 46.1991 34.0905 46.3052 33.9183C46.4247 33.7094 46.4847 33.4776 46.4801 33.2434C46.4898 32.8767 46.3503 32.5193 46.0874 32.2365C45.8166 31.9441 45.457 31.7488 44.9888 31.6386C44.6363 31.5503 44.0518 31.5065 43.2543 31.5065L42.6649 31.5084ZM43.9975 38.1998H43.9227C43.7141 38.1996 43.5141 38.1259 43.3665 37.9949C43.219 37.8639 43.136 37.6863 43.1359 37.501V36.054C43.1362 35.8688 43.2193 35.6913 43.3667 35.5603C43.5142 35.4293 43.7142 35.3556 43.9227 35.3553C44.7167 35.3553 45.2864 35.4805 45.6629 35.7391C45.8583 35.8713 46.0155 36.0428 46.1217 36.2395C46.2278 36.4362 46.2799 36.6525 46.2735 36.8705C46.2735 37.3013 46.0817 37.6525 45.7186 37.8861C45.3837 38.1021 44.8394 38.1998 43.9975 38.1998ZM43.9813 37.4484H43.9975C44.8598 37.4484 45.1404 37.3276 45.2215 37.2756C45.3167 37.213 45.4267 37.1122 45.4267 36.868C45.4332 36.7648 45.4108 36.6619 45.3616 36.5682C45.3124 36.4746 45.2379 36.3933 45.1447 36.3314C44.9973 36.2306 44.6765 36.1104 43.9806 36.1041L43.9813 37.4484ZM43.9418 34.7141H43.9227C43.714 34.7138 43.514 34.64 43.3665 34.5089C43.219 34.3778 43.136 34.2001 43.1359 34.0147V32.9403C43.1362 32.7551 43.2193 32.5776 43.3667 32.4466C43.5142 32.3156 43.7142 32.2419 43.9227 32.2416H44.0116C44.5157 32.2416 44.9106 32.348 45.1856 32.5546C45.3294 32.6652 45.4437 32.8028 45.5203 32.9574C45.5969 33.112 45.6338 33.2799 45.6284 33.4487C45.6345 33.6249 45.5967 33.8001 45.5175 33.9617C45.4384 34.1233 45.32 34.2674 45.1708 34.3835C44.8852 34.6052 44.4713 34.7166 43.9418 34.7166V34.7141ZM43.9813 32.9904V33.9622C44.2774 33.9584 44.4967 33.9077 44.6158 33.815C44.6927 33.7562 44.7808 33.661 44.7808 33.4487C44.7808 33.2609 44.7019 33.1776 44.6328 33.125C44.5178 33.0367 44.3021 32.9904 44.0102 32.9904H43.9813ZM25.6608 24.9309C25.403 24.93 25.1514 24.8599 24.9392 24.7299C24.7269 24.5998 24.5638 24.4158 24.4713 24.2021L24.0786 23.2829C24.0738 23.2721 24.0655 23.2628 24.0547 23.2562C24.0439 23.2496 24.0311 23.2461 24.018 23.246H20.9304C20.9173 23.2459 20.9046 23.2494 20.8937 23.2558C20.8829 23.2623 20.8746 23.2715 20.8697 23.2823L20.4558 24.214C20.3289 24.4888 20.0855 24.7084 19.778 24.8254C19.4706 24.9424 19.1236 24.9475 18.812 24.8395C18.5004 24.7315 18.249 24.5191 18.112 24.2481C17.975 23.9771 17.9634 23.6692 18.0797 23.3906L20.8662 16.9772C20.991 16.6896 21.211 16.4422 21.4972 16.2678C21.7835 16.0934 22.1224 16 22.4696 16C22.8167 16 23.1557 16.0934 23.4419 16.2678C23.7281 16.4422 23.9481 16.6896 24.073 16.9772L26.8524 23.3944C26.9278 23.5658 26.9546 23.7511 26.9307 23.9339C26.9068 24.1167 26.8329 24.2915 26.7153 24.4431C26.5977 24.5947 26.4402 24.7184 26.2564 24.8034C26.0726 24.8885 25.8681 24.9322 25.6608 24.9309ZM20.9304 22.4946H24.0201C24.2046 22.4954 24.3845 22.5456 24.5363 22.6387C24.6882 22.7317 24.8049 22.8633 24.8711 23.0162L25.2646 23.9354C25.2956 24.0069 25.3503 24.0685 25.4213 24.112C25.4924 24.1556 25.5766 24.1791 25.663 24.1795C25.7323 24.1802 25.8008 24.1656 25.8624 24.1372C25.924 24.1088 25.9767 24.0674 26.016 24.0166C26.0553 23.9658 26.0799 23.9072 26.0877 23.846C26.0955 23.7848 26.0862 23.7228 26.0606 23.6655L23.2811 17.2483C23.218 17.1022 23.1064 16.9764 22.9612 16.8878C22.8159 16.7991 22.6438 16.7516 22.4675 16.7516C22.2912 16.7516 22.119 16.7991 21.9738 16.8878C21.8285 16.9764 21.7169 17.1022 21.6538 17.2483L18.8687 23.6611C18.8336 23.7539 18.8401 23.8551 18.8868 23.9438C18.9335 24.0325 19.0168 24.1018 19.1194 24.1375C19.2221 24.1731 19.3363 24.1723 19.4383 24.1353C19.5403 24.0983 19.6224 24.0278 19.6675 23.9385L20.0814 23.0062C20.1482 22.8548 20.2651 22.7248 20.4166 22.6335C20.5681 22.5422 20.7472 22.4938 20.9304 22.4946ZM23.4624 21.7283H21.4881C21.3918 21.7284 21.297 21.7077 21.2118 21.6679C21.1267 21.6281 21.0537 21.5704 20.9994 21.4998C20.9451 21.4293 20.9109 21.348 20.9 21.2631C20.8891 21.1782 20.9017 21.0922 20.9367 21.0126L21.9238 18.7635C21.9669 18.6652 22.0425 18.5807 22.1406 18.5212C22.2388 18.4618 22.355 18.4301 22.4738 18.4304C22.5929 18.43 22.7092 18.4618 22.8075 18.5215C22.9057 18.5812 22.9811 18.6661 23.0238 18.7648L24.0109 21.0138C24.0456 21.0933 24.058 21.1791 24.047 21.2638C24.036 21.3485 24.0018 21.4296 23.9476 21.4999C23.8934 21.5703 23.8207 21.6278 23.7357 21.6676C23.6508 21.7074 23.5563 21.7282 23.4602 21.7283H23.4624ZM21.8625 20.9769H23.0887L22.4773 19.5794L21.8625 20.9769ZM44.3874 24.9309H42.6649C42.3247 24.9304 41.9986 24.8102 41.7581 24.5966C41.5175 24.383 41.3821 24.0934 41.3816 23.7913V17.14C41.3821 16.8379 41.5175 16.5484 41.7581 16.3348C41.9986 16.1212 42.3247 16.0009 42.6649 16.0004H43.2529C44.1399 16.0004 44.7801 16.0524 45.2095 16.1589C45.8094 16.2884 46.3468 16.585 46.7431 17.0054C47.1304 17.4226 47.3378 17.9486 47.3283 18.4893C47.3396 19.0423 47.1065 19.5773 46.6789 19.9795C47.0188 20.1721 47.3108 20.4244 47.537 20.7208C47.8476 21.1534 48.0068 21.658 47.9947 22.1709C47.9991 22.6859 47.8374 23.1913 47.5286 23.6273C47.2385 24.0489 46.8216 24.3902 46.325 24.6128C45.8392 24.8257 45.2053 24.9309 44.3874 24.9309ZM42.6649 16.7518C42.549 16.752 42.4379 16.7929 42.3559 16.8657C42.274 16.9384 42.2279 17.0371 42.2277 17.14V23.7913C42.2279 23.8942 42.274 23.9929 42.3559 24.0657C42.4379 24.1384 42.549 24.1794 42.6649 24.1795H44.3874C45.0615 24.1795 45.5861 24.0981 45.9471 23.9385C46.3058 23.7785 46.6062 23.5317 46.8136 23.2266C47.0379 22.9109 47.1543 22.5442 47.1485 22.1709C47.1485 21.7639 47.0442 21.4252 46.8291 21.1347C46.6493 20.8905 46.3687 20.6745 45.9964 20.4923C45.9109 20.4507 45.838 20.3914 45.7838 20.3195C45.7296 20.2475 45.6958 20.165 45.6852 20.079C45.6746 19.9929 45.6876 19.9059 45.723 19.8252C45.7584 19.7446 45.8152 19.6727 45.8885 19.6157C46.0566 19.4892 46.1973 19.3367 46.3038 19.1655C46.4231 18.9565 46.4831 18.7248 46.4787 18.4905C46.4883 18.1239 46.3489 17.7665 46.086 17.4837C45.8152 17.1913 45.4556 16.9954 44.9874 16.8852C44.6349 16.7975 44.0504 16.753 43.2529 16.753L42.6649 16.7518ZM43.9975 23.4463H43.9227C43.714 23.446 43.514 23.3722 43.3665 23.2411C43.219 23.11 43.136 22.9323 43.1359 22.747V21.2981C43.136 21.1128 43.219 20.9351 43.3665 20.804C43.514 20.6729 43.714 20.5991 43.9227 20.5987C44.7167 20.5987 45.2864 20.7239 45.6629 20.9832C45.8582 21.1153 46.0154 21.2867 46.1215 21.4833C46.2277 21.6799 46.2798 21.896 46.2735 22.1139C46.2735 22.5453 46.0817 22.8966 45.7186 23.1302C45.3837 23.3455 44.8394 23.4463 43.9975 23.4463ZM43.9813 22.695H43.9975C44.8598 22.695 45.1404 22.5742 45.2215 22.5222C45.3167 22.4596 45.4267 22.3581 45.4267 22.1139C45.4332 22.0108 45.4108 21.9078 45.3616 21.8142C45.3124 21.7205 45.2379 21.6392 45.1447 21.5774C44.9973 21.4766 44.6765 21.357 43.9806 21.3507L43.9813 22.695ZM43.9418 19.9601H43.9227C43.7142 19.9597 43.5142 19.886 43.3667 19.755C43.2193 19.6241 43.1362 19.4465 43.1359 19.2613V18.1844C43.136 17.999 43.219 17.8213 43.3665 17.6902C43.514 17.5591 43.714 17.4853 43.9227 17.485H44.0116C44.5157 17.485 44.9106 17.5914 45.1856 17.8012C45.3294 17.9116 45.4437 18.0491 45.5203 18.2036C45.5969 18.3582 45.6338 18.5259 45.6284 18.6947C45.6345 18.8708 45.5967 19.046 45.5176 19.2076C45.4385 19.3693 45.32 19.5133 45.1708 19.6295C44.8852 19.8486 44.4713 19.9601 43.9418 19.9601ZM43.9813 18.2363V19.2087C44.2774 19.2043 44.4967 19.1536 44.6158 19.0616C44.6927 18.999 44.7808 18.9076 44.7808 18.6947C44.7808 18.5068 44.7019 18.4236 44.6328 18.371C44.5178 18.2833 44.3021 18.2363 44.0102 18.2363H43.9813ZM41.0192 30.2949C40.8488 30.2945 40.6815 30.2544 40.5341 30.1785C40.3861 30.1037 40.2632 29.9953 40.1779 29.8645C40.0925 29.7337 40.0478 29.5852 40.0483 29.434V29.4058H26.0218C25.9474 29.4061 25.8743 29.3889 25.8097 29.3561C25.7452 29.3232 25.6915 29.2758 25.6542 29.2186C25.6169 29.1615 25.5972 29.0966 25.5971 29.0305C25.597 28.9645 25.6166 28.8995 25.6538 28.8423C25.86 28.5163 25.9683 28.1487 25.9683 27.7748C25.9683 27.4009 25.86 27.0332 25.6538 26.7072C25.6175 26.6501 25.5986 26.5855 25.5991 26.5199C25.5996 26.4543 25.6195 26.3899 25.6567 26.3332C25.694 26.2766 25.7473 26.2295 25.8113 26.1968C25.8754 26.1641 25.948 26.1469 26.0218 26.1468H40.0483V26.1187C40.0484 25.9674 40.0933 25.8188 40.1785 25.6878C40.2637 25.5568 40.3862 25.4481 40.5338 25.3725C40.6813 25.2968 40.8487 25.257 41.019 25.257C41.1894 25.257 41.3567 25.2967 41.5043 25.3723L44.7336 27.0284C44.881 27.1041 45.0035 27.2128 45.0886 27.3438C45.1737 27.4747 45.2185 27.6232 45.2185 27.7745C45.2185 27.9257 45.1737 28.0742 45.0886 28.2051C45.0035 28.3361 44.881 28.4449 44.7336 28.5205L41.5036 30.1766C41.3568 30.2535 41.1896 30.2943 41.0192 30.2949ZM26.6635 28.6526H40.4713C40.5835 28.6526 40.6911 28.6922 40.7705 28.7626C40.8498 28.8331 40.8944 28.9286 40.8944 29.0283V29.434C40.8946 29.4533 40.9005 29.4721 40.9115 29.4887C40.9225 29.5053 40.9381 29.5191 40.9569 29.5287C40.9757 29.5383 40.997 29.5434 41.0186 29.5435C41.0403 29.5436 41.0616 29.5386 41.0805 29.5292L44.3098 27.8687C44.3291 27.8594 44.3451 27.8457 44.3562 27.8289C44.3672 27.8121 44.3729 27.793 44.3726 27.7735C44.3729 27.754 44.3672 27.7348 44.3562 27.7179C44.3451 27.701 44.3291 27.6871 44.3098 27.6777L41.0805 26.0216C41.0619 26.0116 41.0406 26.0063 41.0188 26.0063C40.9971 26.0063 40.9757 26.0116 40.9571 26.0216C40.9378 26.031 40.9218 26.0449 40.9107 26.0617C40.8996 26.0786 40.894 26.0979 40.8944 26.1174V26.5213C40.8944 26.6209 40.8498 26.7164 40.7705 26.7869C40.6911 26.8574 40.5835 26.8969 40.4713 26.8969H26.6635C26.8647 27.4677 26.8647 28.0794 26.6635 28.6501V28.6526Z" fill="#0D2043"/>
<path d="M23.518 30.7032C22.9756 30.7036 22.4415 30.5849 21.9633 30.3578C21.485 30.1307 21.0774 29.8022 20.7766 29.4014C20.7142 29.3184 20.6915 29.2168 20.7135 29.1189C20.7356 29.021 20.8004 28.935 20.8939 28.8796C20.9874 28.8242 21.1019 28.8041 21.2121 28.8236C21.3223 28.8432 21.4193 28.9008 21.4816 28.9838C21.7707 29.3686 22.1903 29.6616 22.6796 29.8202C23.1689 29.9788 23.7024 29.9948 24.2026 29.8659C24.7029 29.7371 25.1439 29.47 25.4616 29.1034C25.7793 28.7369 25.9571 28.29 25.9694 27.8276C25.9817 27.3651 25.8277 26.9113 25.5298 26.5319C25.2318 26.1525 24.8055 25.8672 24.3127 25.7176C23.8198 25.5679 23.2861 25.5616 22.7889 25.6996C22.2918 25.8376 21.8571 26.1127 21.5479 26.4849C21.515 26.5247 21.4736 26.5583 21.426 26.5839C21.3785 26.6094 21.3258 26.6264 21.2708 26.6338C21.2159 26.6413 21.1598 26.639 21.1059 26.6272C21.0519 26.6154 21.0011 26.5943 20.9563 26.5651C20.9116 26.5359 20.8737 26.4991 20.845 26.4569C20.8162 26.4146 20.7971 26.3678 20.7887 26.319C20.7803 26.2702 20.7828 26.2205 20.7961 26.1726C20.8094 26.1247 20.8332 26.0795 20.8661 26.0398C21.2001 25.6372 21.6446 25.3174 22.1573 25.1107C22.67 24.904 23.2338 24.8174 23.7949 24.8591C24.356 24.9008 24.8957 25.0694 25.3626 25.3489C25.8295 25.6285 26.2079 26.0095 26.4619 26.4558C26.7158 26.902 26.8368 27.3986 26.8134 27.8982C26.7899 28.3977 26.6227 28.8836 26.3277 29.3095C26.0327 29.7354 25.6198 30.0871 25.1283 30.3311C24.6368 30.575 24.0831 30.7031 23.5201 30.7032H23.518Z" fill="#0D2043"/>
<path d="M20.6547 28.3853C20.5487 28.3856 20.4464 28.3506 20.368 28.2872C20.2897 28.2238 20.241 28.1365 20.2316 28.0428C20.2225 27.9526 20.2175 27.8631 20.2175 27.776C20.2175 27.6489 20.2269 27.522 20.2457 27.396C20.2602 27.2968 20.3185 27.2067 20.4078 27.1457C20.497 27.0846 20.6099 27.0575 20.7217 27.0704C20.8334 27.0833 20.9348 27.135 21.0036 27.2143C21.0723 27.2935 21.1028 27.3938 21.0883 27.493C21.0746 27.586 21.0677 27.6797 21.0679 27.7735C21.0679 27.8361 21.0679 27.9044 21.0784 27.9733C21.0884 28.0725 21.0536 28.1712 20.9817 28.2476C20.9098 28.324 20.8066 28.372 20.6949 28.3809C20.6816 28.383 20.6682 28.3845 20.6547 28.3853Z" fill="#0D2043"/>
</svg>
