<svg width="63" height="64" viewBox="0 0 63 64" fill="none" xmlns="http://www.w3.org/2000/svg">
<rect width="62.5157" height="63.8458" rx="17.2916" fill="#74D1D1"/>
<path d="M47.6875 34.6562V36.7812C47.6875 37.6266 47.322 38.4374 46.6715 39.0352C46.021 39.6329 45.1387 39.9688 44.2188 39.9688H18.7812C17.8613 39.9688 16.979 39.6329 16.3285 39.0352C15.678 38.4374 15.3125 37.6266 15.3125 36.7812V34.6562H47.6875Z" fill="url(#paint0_linear_91_1990)"/>
<path d="M37.4488 46.3438H25.551L27.9329 39.9688H35.067L37.4488 46.3438Z" fill="#EF7E60"/>
<path d="M32.0781 37.8438H30.9219C30.7685 37.8438 30.6215 37.7878 30.5131 37.6882C30.4047 37.5885 30.3438 37.4534 30.3438 37.3125C30.3438 37.1716 30.4047 37.0365 30.5131 36.9368C30.6215 36.8372 30.7685 36.7812 30.9219 36.7812H32.0781C32.2315 36.7812 32.3785 36.8372 32.4869 36.9368C32.5953 37.0365 32.6562 37.1716 32.6562 37.3125C32.6562 37.4534 32.5953 37.5885 32.4869 37.6882C32.3785 37.7878 32.2315 37.8438 32.0781 37.8438Z" fill="url(#paint1_linear_91_1990)"/>
<path d="M47.6875 20.8438V34.6562H15.3125V20.8438C15.3125 19.9984 15.678 19.1876 16.3285 18.5898C16.979 17.9921 17.8613 17.6562 18.7812 17.6562H44.2188C45.1387 17.6562 46.021 17.9921 46.6715 18.5898C47.322 19.1876 47.6875 19.9984 47.6875 20.8438Z" fill="url(#paint2_linear_91_1990)"/>
<path d="M38.4375 46.875H24.5625C24.4092 46.875 24.2621 46.819 24.1537 46.7194C24.0453 46.6198 23.9844 46.4846 23.9844 46.3438C23.9844 46.2029 24.0453 46.0677 24.1537 45.9681C24.2621 45.8685 24.4092 45.8125 24.5625 45.8125H38.4375C38.5908 45.8125 38.7379 45.8685 38.8463 45.9681C38.9547 46.0677 39.0156 46.2029 39.0156 46.3438C39.0156 46.4846 38.9547 46.6198 38.8463 46.7194C38.7379 46.819 38.5908 46.875 38.4375 46.875Z" fill="#0D2043"/>
<path d="M29.1875 31.0809V32.5312C29.1875 32.6721 29.1266 32.8073 29.0182 32.9069C28.9098 33.0065 28.7627 33.0625 28.6094 33.0625H20.5156C20.3623 33.0625 20.2153 33.0065 20.1068 32.9069C19.9984 32.8073 19.9375 32.6721 19.9375 32.5312V30.9375C19.9361 30.3549 20.0651 29.7782 20.3165 29.2433C20.5678 28.7084 20.9361 28.2268 21.3986 27.8282C21.8611 27.4296 22.4078 27.1227 23.0048 26.9265C23.6018 26.7302 24.2363 26.6489 24.8689 26.6875C26.0597 26.7827 27.1671 27.2888 27.9683 28.1039C28.7696 28.919 29.2052 29.9827 29.1875 31.0809Z" fill="url(#paint3_linear_91_1990)"/>
<path d="M26.875 23.5V24.5625C26.875 25.1261 26.6314 25.6666 26.1977 26.0651C25.764 26.4636 25.1758 26.6875 24.5625 26.6875C23.9492 26.6875 23.361 26.4636 22.9273 26.0651C22.4936 25.6666 22.25 25.1261 22.25 24.5625V23.5C22.25 22.9364 22.4936 22.3959 22.9273 21.9974C23.361 21.5989 23.9492 21.375 24.5625 21.375C25.1758 21.375 25.764 21.5989 26.1977 21.9974C26.6314 22.3959 26.875 22.9364 26.875 23.5Z" fill="url(#paint4_linear_91_1990)"/>
<path d="M28.0312 23.5C27.8779 23.5 27.7309 23.444 27.6225 23.3444C27.514 23.2448 27.4531 23.1096 27.4531 22.9688V22.4375C27.4531 21.733 27.1486 21.0574 26.6065 20.5592C26.0644 20.0611 25.3291 19.7812 24.5625 19.7812C23.7959 19.7812 23.0606 20.0611 22.5185 20.5592C21.9764 21.0574 21.6719 21.733 21.6719 22.4375V22.9688C21.6719 23.1096 21.611 23.2448 21.5025 23.3444C21.3941 23.444 21.2471 23.5 21.0938 23.5C20.9404 23.5 20.7934 23.444 20.685 23.3444C20.5765 23.2448 20.5156 23.1096 20.5156 22.9688V22.4375C20.5156 21.4512 20.942 20.5053 21.7009 19.8079C22.4599 19.1105 23.4892 18.7188 24.5625 18.7188C25.6358 18.7188 26.6651 19.1105 27.4241 19.8079C28.183 20.5053 28.6094 21.4512 28.6094 22.4375V22.9688C28.6094 23.1096 28.5485 23.2448 28.44 23.3444C28.3316 23.444 28.1846 23.5 28.0312 23.5Z" fill="url(#paint5_linear_91_1990)"/>
<path d="M29.1875 23.5V24.5625C29.1875 24.7034 29.1266 24.8385 29.0182 24.9382C28.9098 25.0378 28.7627 25.0938 28.6094 25.0938H26.875V22.9688H28.6094C28.7627 22.9688 28.9098 23.0247 29.0182 23.1243C29.1266 23.224 29.1875 23.3591 29.1875 23.5Z" fill="url(#paint6_linear_91_1990)"/>
<path d="M22.25 23.2131V24.8494C22.2485 24.9138 22.22 24.9751 22.1705 25.0207C22.1209 25.0662 22.0541 25.0924 21.9841 25.0938H20.5156C20.3623 25.0938 20.2152 25.0378 20.1068 24.9382C19.9984 24.8385 19.9375 24.7034 19.9375 24.5625V23.5C19.9375 23.3591 19.9984 23.224 20.1068 23.1243C20.2152 23.0247 20.3623 22.9688 20.5156 22.9688H21.9841C22.0541 22.9701 22.1209 22.9963 22.1705 23.0418C22.22 23.0874 22.2485 23.1487 22.25 23.2131Z" fill="url(#paint7_linear_91_1990)"/>
<path d="M43.6406 20.3125V24.5625C43.6406 24.8443 43.5188 25.1145 43.302 25.3138C43.0851 25.5131 42.791 25.625 42.4844 25.625H36.7031L34.3906 27.75V25.625H33.8125C33.5058 25.625 33.2117 25.5131 32.9949 25.3138C32.7781 25.1145 32.6562 24.8443 32.6562 24.5625V20.3125C32.6562 20.0307 32.7781 19.7605 32.9949 19.5612C33.2117 19.3619 33.5058 19.25 33.8125 19.25H42.4844C42.791 19.25 43.0851 19.3619 43.302 19.5612C43.5188 19.7605 43.6406 20.0307 43.6406 20.3125Z" fill="url(#paint8_linear_91_1990)"/>
<path d="M38.4375 21.9062H34.9688C34.8154 21.9062 34.6684 21.8503 34.56 21.7507C34.4515 21.651 34.3906 21.5159 34.3906 21.375C34.3906 21.2341 34.4515 21.099 34.56 20.9993C34.6684 20.8997 34.8154 20.8438 34.9688 20.8438H38.4375C38.5908 20.8438 38.7379 20.8997 38.8463 20.9993C38.9547 21.099 39.0156 21.2341 39.0156 21.375C39.0156 21.5159 38.9547 21.651 38.8463 21.7507C38.7379 21.8503 38.5908 21.9062 38.4375 21.9062ZM41.3281 24.0312H34.9688C34.8154 24.0312 34.6684 23.9753 34.56 23.8757C34.4515 23.776 34.3906 23.6409 34.3906 23.5C34.3906 23.3591 34.4515 23.224 34.56 23.1243C34.6684 23.0247 34.8154 22.9688 34.9688 22.9688H41.3281C41.4815 22.9688 41.6285 23.0247 41.7369 23.1243C41.8453 23.224 41.9062 23.3591 41.9062 23.5C41.9062 23.6409 41.8453 23.776 41.7369 23.8757C41.6285 23.9753 41.4815 24.0312 41.3281 24.0312Z" fill="#F0F7FC"/>
<defs>
<linearGradient id="paint0_linear_91_1990" x1="31.5" y1="39.9688" x2="31.5" y2="34.6562" gradientUnits="userSpaceOnUse">
<stop stop-color="#EB7B69"/>
<stop offset="1" stop-color="#FFF1DA"/>
</linearGradient>
<linearGradient id="paint1_linear_91_1990" x1="30.3438" y1="37.3125" x2="32.6562" y2="37.3125" gradientUnits="userSpaceOnUse">
<stop stop-color="#D3E6F5"/>
<stop offset="1" stop-color="#F0F7FC"/>
</linearGradient>
<linearGradient id="paint2_linear_91_1990" x1="31.5" y1="34.6562" x2="31.5" y2="17.6562" gradientUnits="userSpaceOnUse">
<stop stop-color="#D3E6F5"/>
<stop offset="1" stop-color="#F0F7FC"/>
</linearGradient>
<linearGradient id="paint3_linear_91_1990" x1="21.2788" y1="33.9816" x2="27.2711" y2="27.4605" gradientUnits="userSpaceOnUse">
<stop offset="1" stop-color="#8AD3FE"/>
</linearGradient>
<linearGradient id="paint4_linear_91_1990" x1="24.5625" y1="26.6875" x2="24.5625" y2="21.375" gradientUnits="userSpaceOnUse">
<stop stop-color="#EB7B69"/>
<stop offset="1" stop-color="#EB7B69"/>
</linearGradient>
<linearGradient id="paint5_linear_91_1990" x1="20.5156" y1="21.1094" x2="28.6094" y2="21.1094" gradientUnits="userSpaceOnUse">
<stop stop-color="#FE9661"/>
<stop offset="1" stop-color="#FFB369"/>
</linearGradient>
<linearGradient id="paint6_linear_91_1990" x1="26.875" y1="24.0312" x2="29.1875" y2="24.0312" gradientUnits="userSpaceOnUse">
<stop stop-color="#FE9661"/>
<stop offset="1" stop-color="#FFB369"/>
</linearGradient>
<linearGradient id="paint7_linear_91_1990" x1="19.9375" y1="24.0312" x2="22.25" y2="24.0312" gradientUnits="userSpaceOnUse">
<stop stop-color="#FE9661"/>
<stop offset="1" stop-color="#FFB369"/>
</linearGradient>
<linearGradient id="paint8_linear_91_1990" x1="38.1484" y1="27.75" x2="38.1484" y2="19.25" gradientUnits="userSpaceOnUse">
<stop stop-color="#EB7B69"/>
<stop offset="1" stop-color="#DF6951"/>
</linearGradient>
</defs>
</svg>
