<svg width="63" height="64" viewBox="0 0 63 64" fill="none" xmlns="http://www.w3.org/2000/svg">
<rect width="62.5157" height="63.8458" rx="17.2916" fill="#F0C4B8"/>
<path d="M23.0412 8.50968C23.1958 8.62654 23.151 8.88442 22.9671 8.93314L16.9121 10.5382L15.7974 5.70636L21.8523 4.1013C22.0362 4.05255 22.188 4.2583 22.1021 4.43892L21.0022 6.72985C20.9516 6.83534 20.9814 6.96425 21.072 7.03231L23.0412 8.50968Z" fill="#1E1D4C"/>
<path d="M15.7371 5.44607L17.9532 15.0515L17.3137 15.221L15.0976 5.6156C15.0539 5.42593 15.1618 5.23423 15.3387 5.18732C15.4266 5.16402 15.5153 5.1813 15.5874 5.22796C15.6595 5.27461 15.7154 5.35186 15.7371 5.44607Z" fill="#FED049"/>
<path d="M16.9121 10.6324C16.8962 10.6324 16.8805 10.6278 16.8667 10.6189C16.8468 10.606 16.8324 10.5851 16.8268 10.5609L15.712 5.729C15.7005 5.67848 15.7292 5.62745 15.7763 5.61496L21.8313 4.00987C21.9499 3.97866 22.071 4.02262 22.147 4.12538C22.2232 4.22819 22.2359 4.36475 22.1803 4.48174L21.0802 6.77299C21.05 6.83607 21.0681 6.91449 21.1223 6.95529L23.0916 8.43258C23.0917 8.43264 23.0918 8.43272 23.0919 8.43277C23.1919 8.50842 23.24 8.63559 23.2174 8.76461C23.1947 8.89349 23.1069 8.99312 22.9881 9.02458L16.9332 10.6297C16.9263 10.6315 16.9192 10.6324 16.9121 10.6324ZM15.9037 5.77515L16.9763 10.4242L22.946 8.84171C22.9978 8.82792 23.0348 8.78609 23.0446 8.72975C23.0546 8.67333 23.0345 8.61994 22.9908 8.58677L21.0215 7.10947C20.8958 7.01492 20.8538 6.8333 20.924 6.68689L22.0239 4.39582C22.0482 4.34492 22.0428 4.28749 22.0094 4.24242C21.9761 4.19761 21.9256 4.17903 21.8734 4.19269L15.9037 5.77515Z" fill="#0D2043"/>
<path d="M17.3138 15.3153C17.2979 15.3153 17.2822 15.3107 17.2684 15.3017C17.2485 15.2888 17.234 15.2679 17.2284 15.2437L15.0124 5.6382C14.9856 5.52206 15.0026 5.4017 15.0603 5.29925C15.118 5.19685 15.2093 5.1247 15.3177 5.09593C15.4255 5.06742 15.5374 5.08564 15.6329 5.14733C15.7269 5.20821 15.796 5.30889 15.8226 5.4235L18.0387 15.029C18.0502 15.0795 18.0215 15.1305 17.9744 15.143L17.3348 15.3125C17.328 15.3143 17.3209 15.3153 17.3138 15.3153ZM15.4177 5.27116C15.3984 5.27116 15.379 5.27367 15.3598 5.27875C15.2971 5.29542 15.2441 5.33725 15.2107 5.3966C15.1773 5.4559 15.1675 5.52566 15.1829 5.59292L17.378 15.107L17.8469 14.9827L15.6519 5.46872C15.6365 5.4022 15.5965 5.34383 15.542 5.30858C15.5038 5.28386 15.461 5.27116 15.4177 5.27116Z" fill="#0D2043"/>
<g opacity="0.3">
<path d="M19.51 7.2741C19.508 7.27594 19.5095 7.27783 19.5115 7.27599C19.5135 7.27415 19.512 7.27226 19.51 7.2741Z" fill="#DF6951"/>
<path d="M19.0885 7.57242C19.0764 7.58388 19.0835 7.59811 19.0958 7.58652C19.1078 7.57504 19.1007 7.56084 19.0885 7.57242Z" fill="#DF6951"/>
<path d="M19.6236 7.19969C19.608 7.21433 19.6215 7.22822 19.6371 7.21363C19.6528 7.19901 19.6392 7.18512 19.6236 7.19969Z" fill="#DF6951"/>
<path d="M19.6623 7.13613L19.6417 7.0872L19.6316 7.0632C19.6296 7.05882 19.627 7.05485 19.6245 7.05078C19.6224 7.04715 19.6205 7.04397 19.6162 7.04252C19.6111 7.04081 19.6017 7.04721 19.6002 7.05439C19.5986 7.06177 19.6006 7.06639 19.6022 7.07204C19.6036 7.07652 19.6049 7.0809 19.6067 7.08497L19.6168 7.10741L19.6374 7.15321C19.6395 7.15787 19.6453 7.15917 19.6525 7.15424C19.6588 7.14992 19.6643 7.14092 19.6623 7.13613Z" fill="#DF6951"/>
<path d="M19.3373 7.01906C19.3328 7.02336 19.3362 7.02795 19.3408 7.02365C19.3453 7.01934 19.3419 7.01476 19.3373 7.01906Z" fill="#DF6951"/>
<path d="M19.5162 6.80101L19.4089 6.86733C19.3747 6.88853 19.3399 6.90976 19.3065 6.93422C19.2967 6.9414 19.2979 6.95449 19.3086 6.94895C19.3446 6.93034 19.3804 6.90745 19.4159 6.88516L19.5201 6.81972C19.5353 6.81013 19.5315 6.79155 19.5162 6.80101Z" fill="#DF6951"/>
<path d="M19.023 7.10236C19.0013 7.12267 19.0139 7.14807 19.036 7.12744C19.0577 7.1071 19.045 7.08173 19.023 7.10236Z" fill="#DF6951"/>
<path d="M19.231 7.1922C19.2104 7.21154 19.2286 7.22955 19.2491 7.21024C19.2697 7.19091 19.2515 7.17289 19.231 7.1922Z" fill="#DF6951"/>
<path d="M19.2422 7.23566L19.2491 7.26227L19.2514 7.27103L19.2525 7.27541C19.2536 7.27982 19.2565 7.28207 19.2596 7.28472L19.2568 7.28218C19.2602 7.2855 19.2631 7.28912 19.2682 7.29042C19.2748 7.2921 19.2857 7.28632 19.2901 7.27679C19.2922 7.27228 19.2927 7.2714 19.2937 7.26691L19.2953 7.25927C19.2959 7.25629 19.2966 7.25312 19.2967 7.2503C19.2969 7.24727 19.2956 7.24403 19.2951 7.2412L19.294 7.23571L19.289 7.20922C19.2881 7.20417 19.2857 7.20036 19.2807 7.19917C19.2763 7.19816 19.2695 7.19937 19.2638 7.20282C19.2577 7.20653 19.2514 7.21186 19.2476 7.21821C19.2442 7.22386 19.241 7.23115 19.2422 7.23566Z" fill="#DF6951"/>
<path d="M19.0918 7.45292C19.0708 7.47267 19.0902 7.49024 19.1111 7.47057C19.1322 7.4508 19.1128 7.43323 19.0918 7.45292Z" fill="#DF6951"/>
<path d="M18.9234 7.4413L18.8911 7.45382L18.8887 7.45532L18.8855 7.4584C18.8839 7.46032 18.8825 7.46266 18.8821 7.46468C18.8812 7.46869 18.8828 7.47175 18.8866 7.4717L18.897 7.47152L18.8943 7.47149L18.9149 7.47136C18.9185 7.47126 18.9232 7.46856 18.927 7.46553C18.9295 7.46338 18.9316 7.46097 18.9333 7.45828C18.9347 7.4562 18.9356 7.45415 18.9359 7.45219C18.9367 7.45009 18.9369 7.44817 18.9366 7.44648C18.9364 7.44475 18.9357 7.44345 18.9346 7.44254C18.9337 7.44135 18.9325 7.44063 18.9308 7.44037C18.9287 7.44 18.9262 7.44029 18.9234 7.4413Z" fill="#DF6951"/>
<path d="M18.9273 7.44588L18.8727 7.44392L18.8463 7.44296L18.8331 7.44246C18.8264 7.44226 18.8197 7.4436 18.8122 7.44547C18.7989 7.44874 18.7897 7.46792 18.7988 7.47183C18.8035 7.47385 18.8083 7.47577 18.8141 7.476L18.8273 7.47649L18.8546 7.47748L18.9083 7.47942C18.9161 7.47971 18.9263 7.47346 18.9317 7.46408C18.9366 7.45537 18.9351 7.44617 18.9273 7.44588Z" fill="#DF6951"/>
<path d="M18.9318 7.28938L18.82 7.31737C18.8016 7.32146 18.7827 7.32566 18.7635 7.32991C18.7536 7.33188 18.7437 7.33326 18.7336 7.33613C18.7225 7.3393 18.7095 7.34292 18.6982 7.35036C18.6913 7.35487 18.6886 7.36519 18.694 7.36643C18.7021 7.36835 18.7128 7.36521 18.7227 7.36311C18.7329 7.36096 18.7438 7.35656 18.7543 7.35306C18.7731 7.34697 18.7917 7.34095 18.8113 7.33463L18.9293 7.30014C18.9363 7.29809 18.9387 7.28764 18.9318 7.28938Z" fill="#DF6951"/>
<path d="M18.5352 7.40983C18.5175 7.42649 18.529 7.44609 18.5469 7.42924C18.5647 7.4126 18.5532 7.39298 18.5352 7.40983Z" fill="#DF6951"/>
<path d="M18.7831 7.1119C18.7648 7.129 18.7774 7.14847 18.7958 7.13121C18.8141 7.11413 18.8015 7.09466 18.7831 7.1119Z" fill="#DF6951"/>
<path d="M18.6329 7.00769L18.6884 6.952C18.6922 6.94811 18.6956 6.94072 18.6959 6.93679C18.6963 6.93256 18.6955 6.92924 18.6932 6.92694C18.6881 6.92201 18.6774 6.92396 18.668 6.93207C18.6714 6.92914 18.6667 6.93318 18.6667 6.93318L18.6635 6.93601L18.6564 6.94223L18.6428 6.95418L18.6099 6.98279C18.5966 6.9943 18.5906 7.01057 18.5978 7.01829C18.6009 7.02174 18.6055 7.0227 18.6118 7.0212C18.6198 7.01933 18.6259 7.01459 18.6329 7.00769Z" fill="#DF6951"/>
<path d="M18.7502 6.7826L18.7431 6.77926L18.7457 6.78045L18.7368 6.77594C18.735 6.77506 18.7329 6.7749 18.7302 6.77568C18.7278 6.77638 18.725 6.7778 18.7227 6.77998C18.7208 6.78172 18.7192 6.78364 18.7179 6.78568C18.7161 6.78856 18.7152 6.79247 18.7158 6.79465L18.7206 6.81165C18.7218 6.81601 18.7268 6.81823 18.7325 6.81665C18.7371 6.81538 18.7419 6.81279 18.7461 6.80865C18.7499 6.80486 18.7531 6.79986 18.7544 6.79553C18.7553 6.79237 18.7554 6.78962 18.7546 6.78726C18.7538 6.78506 18.7523 6.78351 18.7502 6.7826Z" fill="#DF6951"/>
<path d="M18.7408 6.79978L18.7697 6.75025C18.7721 6.74616 18.7671 6.74538 18.7646 6.74947L18.7342 6.79921C18.7311 6.80426 18.7378 6.80494 18.7408 6.79978Z" fill="#DF6951"/>
<path d="M19.0008 6.60339C18.9831 6.62 18.9945 6.63962 19.0125 6.62282C19.0303 6.60618 19.0188 6.58657 19.0008 6.60339Z" fill="#DF6951"/>
<path d="M19.2142 6.36746L19.16 6.36152L19.1346 6.3587L19.1214 6.35725L19.1157 6.35665C19.1107 6.35613 19.107 6.35701 19.1009 6.35919C19.0897 6.36318 19.0779 6.38101 19.0843 6.38708C19.0876 6.39019 19.0902 6.39208 19.0956 6.39234L19.1019 6.39236L19.1157 6.39242L19.1468 6.3926L19.2001 6.39304C19.2143 6.39309 19.2279 6.36894 19.2142 6.36746Z" fill="#DF6951"/>
<path d="M18.946 6.40935C18.9218 6.43208 18.9408 6.45574 18.9651 6.43288C18.9892 6.41016 18.9703 6.38652 18.946 6.40935Z" fill="#DF6951"/>
<path d="M18.6231 6.61717C18.6154 6.62404 18.623 6.62969 18.6305 6.6229C18.6382 6.61603 18.6307 6.61038 18.6231 6.61717Z" fill="#DF6951"/>
<path d="M18.4373 6.86853C18.4349 6.87179 18.4329 6.87454 18.4307 6.87763L18.4264 6.88377L18.4286 6.88066L18.4215 6.8904C18.4188 6.89424 18.4177 6.89888 18.4198 6.9009C18.4207 6.9017 18.4218 6.90214 18.4232 6.90225C18.4252 6.9024 18.4277 6.90119 18.4301 6.89968L18.4306 6.89937L18.4282 6.90082L18.4428 6.89178L18.4394 6.89385L18.4505 6.88711C18.4559 6.88374 18.4612 6.87739 18.4629 6.87195C18.4643 6.86762 18.4644 6.86368 18.4625 6.86107C18.4607 6.85866 18.4573 6.85757 18.4535 6.85816C18.4507 6.85863 18.4478 6.85982 18.4449 6.86174C18.442 6.86355 18.4395 6.86583 18.4373 6.86853Z" fill="#DF6951"/>
<path d="M18.4185 6.88641L18.397 7.01366L18.3865 7.07524C18.3843 7.08846 18.3833 7.10098 18.3821 7.11383C18.3812 7.12275 18.3828 7.13029 18.383 7.13874C18.3833 7.15022 18.4022 7.14581 18.4071 7.1312C18.4102 7.12327 18.4128 7.11663 18.4158 7.10878C18.4179 7.10261 18.419 7.09639 18.4204 7.09035C18.4226 7.08016 18.4248 7.06995 18.4271 7.0593L18.4385 6.99487L18.4608 6.86809C18.4627 6.8573 18.4518 6.85344 18.4412 6.85806C18.4289 6.86342 18.4204 6.8756 18.4185 6.88641Z" fill="#DF6951"/>
<path d="M18.4043 7.2353L18.3713 7.24321L18.358 7.24645C18.3516 7.24845 18.3461 7.25018 18.3402 7.25202C18.3363 7.25334 18.3325 7.25832 18.3317 7.26182C18.3308 7.26591 18.3331 7.26762 18.3368 7.26731C18.3422 7.26667 18.3475 7.26607 18.3525 7.26547L18.3658 7.26304L18.3952 7.25772C18.4007 7.25674 18.4077 7.25166 18.41 7.24534C18.4111 7.24246 18.4114 7.23953 18.4102 7.23777C18.4091 7.23611 18.4071 7.23463 18.4043 7.2353Z" fill="#DF6951"/>
<path d="M18.3769 7.25272L18.3531 7.32943C18.3493 7.34182 18.3456 7.35392 18.3416 7.36673L18.3376 7.38438C18.3356 7.39345 18.3334 7.40146 18.3335 7.40965C18.3335 7.42118 18.3506 7.41685 18.358 7.40371C18.3664 7.3887 18.3711 7.37365 18.3766 7.3588C18.3815 7.34548 18.3849 7.33223 18.389 7.31904L18.4127 7.24256C18.4156 7.2331 18.4085 7.2268 18.3992 7.22983C18.3889 7.23318 18.38 7.24256 18.3769 7.25272Z" fill="#DF6951"/>
<path d="M18.3687 7.52168L18.3582 7.53757L18.3603 7.53423L18.3544 7.54296C18.3517 7.54701 18.351 7.55105 18.3527 7.55343C18.3543 7.55569 18.3582 7.55613 18.3622 7.55377L18.3714 7.54812L18.3681 7.55006C18.3745 7.5462 18.3805 7.5425 18.3863 7.539C18.3893 7.53669 18.3919 7.534 18.3941 7.53089C18.3963 7.5278 18.3979 7.52469 18.3987 7.52158C18.3997 7.51692 18.3993 7.51285 18.3968 7.51038C18.3945 7.50813 18.3904 7.50748 18.386 7.50867C18.3828 7.50956 18.3797 7.51119 18.3765 7.51357C18.3735 7.51588 18.3708 7.5186 18.3687 7.52168Z" fill="#DF6951"/>
<path d="M18.3489 7.58797C18.3317 7.61819 18.3291 7.64851 18.3381 7.66883C18.347 7.68884 18.3738 7.70231 18.4044 7.68822C18.4157 7.68308 18.4225 7.66624 18.4123 7.66528C18.402 7.66429 18.3933 7.66377 18.3865 7.65984L18.384 7.65826C18.384 7.65826 18.3811 7.65597 18.3826 7.6573L18.3785 7.65305C18.376 7.65001 18.374 7.64649 18.3722 7.64278C18.3688 7.63568 18.3674 7.62793 18.3682 7.61824L18.3687 7.61401C18.3684 7.6164 18.3686 7.61497 18.3689 7.61337L18.371 7.6052C18.3726 7.59997 18.375 7.59494 18.3779 7.5896C18.383 7.58025 18.3803 7.57187 18.3726 7.57143C18.3645 7.57094 18.3542 7.57859 18.3489 7.58797Z" fill="#DF6951"/>
<path d="M18.514 7.76983C18.5096 7.77413 18.513 7.77866 18.5175 7.77436C18.5219 7.77009 18.5185 7.76553 18.514 7.76983Z" fill="#DF6951"/>
<path d="M18.8771 7.73908L18.8807 7.74113L18.8777 7.73944L18.8906 7.74745C18.8916 7.74841 18.8929 7.7489 18.8945 7.74895C18.8959 7.74932 18.8977 7.74916 18.8996 7.74851L18.9034 7.74691C18.9053 7.74592 18.9071 7.74463 18.9088 7.74299C18.9114 7.74053 18.9141 7.7374 18.9154 7.73431C18.9171 7.73037 18.9175 7.72692 18.9164 7.7241L18.9143 7.71897L18.9154 7.72187L18.9105 7.70837C18.9091 7.70492 18.9055 7.70355 18.9013 7.70352C18.8983 7.70365 18.8952 7.70464 18.8918 7.70645C18.8892 7.70777 18.8868 7.70951 18.8847 7.71171C18.8824 7.7136 18.8804 7.71578 18.8789 7.71827C18.8771 7.72068 18.8759 7.72309 18.8753 7.72547C18.8742 7.72801 18.8739 7.73032 18.8741 7.73244C18.8742 7.7353 18.8752 7.7375 18.8771 7.73908Z" fill="#DF6951"/>
<path d="M19.1263 7.62191C19.1111 7.63611 19.1236 7.65018 19.1388 7.636C19.154 7.62178 19.1414 7.6077 19.1263 7.62191Z" fill="#DF6951"/>
<path d="M18.8632 7.805L18.8535 7.81073L18.8569 7.80873L18.8139 7.83387C18.8096 7.83644 18.807 7.8423 18.8074 7.84554C18.808 7.84932 18.8115 7.8501 18.816 7.84831C18.8136 7.84927 18.8173 7.84776 18.8173 7.84776L18.82 7.84665L18.8261 7.84421L18.8403 7.83859L18.864 7.82895C18.8672 7.82763 18.8714 7.82356 18.8736 7.82055C18.8759 7.81721 18.8777 7.81278 18.8774 7.80982C18.8769 7.80396 18.8709 7.80044 18.8632 7.805Z" fill="#DF6951"/>
<path d="M18.5946 7.9267L18.5815 7.93115L18.5702 7.93543L18.5739 7.93388L18.5618 7.93877C18.5593 7.93979 18.5568 7.9417 18.5548 7.94391C18.5527 7.94611 18.5509 7.94886 18.5501 7.9514C18.5496 7.95347 18.5494 7.95539 18.5497 7.95707C18.5501 7.9592 18.5522 7.96132 18.5545 7.96137L18.5612 7.96148L18.5712 7.96111L18.5854 7.96C18.5876 7.95961 18.5897 7.95868 18.5919 7.9572C18.5941 7.95609 18.5962 7.95453 18.5981 7.95254C18.6 7.9507 18.6016 7.94867 18.6027 7.94647C18.6042 7.94432 18.6052 7.94214 18.6058 7.93994C18.6069 7.93561 18.6068 7.93136 18.6044 7.92903L18.6019 7.92716C18.5999 7.92628 18.5974 7.92613 18.5946 7.9267Z" fill="#DF6951"/>
<path d="M19.3344 7.74022L19.1846 7.77288C19.1787 7.77417 19.1762 7.7834 19.182 7.78223L19.3305 7.75269C19.3392 7.75095 19.3433 7.73828 19.3344 7.74022Z" fill="#DF6951"/>
<path d="M19.5393 7.48297C19.5332 7.48857 19.5385 7.49386 19.5446 7.48831C19.5506 7.48271 19.5454 7.47743 19.5393 7.48297Z" fill="#DF6951"/>
<path d="M19.8364 7.25092L19.8253 7.24215L19.8278 7.24407L19.818 7.23593C19.8157 7.23407 19.813 7.2329 19.8101 7.23184C19.8063 7.23044 19.8004 7.23145 19.7953 7.23635C19.7904 7.24107 19.7875 7.2471 19.7885 7.25151C19.7891 7.25428 19.7896 7.25732 19.7907 7.2597L19.7929 7.26387L19.7972 7.27193L19.7958 7.26903L19.8027 7.28279C19.8066 7.29028 19.8193 7.28824 19.8294 7.27867C19.8395 7.26906 19.8428 7.25618 19.8364 7.25092Z" fill="#DF6951"/>
<path d="M19.4243 7.55707C19.4046 7.57555 19.4205 7.59426 19.4403 7.57576C19.46 7.55728 19.4441 7.53854 19.4243 7.55707Z" fill="#DF6951"/>
<path d="M19.4116 7.58408C19.4096 7.58592 19.4111 7.58781 19.4131 7.58597C19.4151 7.58416 19.4136 7.58226 19.4116 7.58408Z" fill="#DF6951"/>
<path d="M19.285 7.84271C19.2513 7.86116 19.2174 7.87922 19.1839 7.89939C19.1716 7.9068 19.1719 7.92103 19.1842 7.91597C19.2181 7.9012 19.2501 7.88728 19.2826 7.87311C19.2914 7.86924 19.3003 7.85877 19.3006 7.85069C19.3008 7.84348 19.2944 7.83755 19.285 7.84271Z" fill="#DF6951"/>
<path d="M18.8639 8.1083C18.8497 8.12201 18.8623 8.13595 18.8765 8.12229C18.8908 8.10861 18.8782 8.09461 18.8639 8.1083Z" fill="#DF6951"/>
<path d="M18.5735 8.16507C18.5547 8.18388 18.5735 8.20125 18.5921 8.18254C18.6108 8.1638 18.5922 8.14628 18.5735 8.16507Z" fill="#DF6951"/>
<path d="M18.4376 8.06005L18.423 8.06103L18.4268 8.06077C18.4162 8.06129 18.4059 8.06163 18.3952 8.06318C18.3911 8.06375 18.3859 8.0673 18.3834 8.07205C18.381 8.07648 18.3804 8.08203 18.3835 8.08363C18.39 8.08695 18.3969 8.08946 18.404 8.09187L18.4012 8.09084L18.4197 8.09768C18.4232 8.09892 18.4284 8.09713 18.4329 8.09454C18.4384 8.09136 18.4432 8.08563 18.446 8.07993C18.4516 8.06845 18.4475 8.05956 18.4376 8.06005Z" fill="#DF6951"/>
<path d="M18.1621 8.09285C18.1464 8.10975 18.1584 8.12833 18.1742 8.11131C18.1899 8.09451 18.178 8.07575 18.1621 8.09285Z" fill="#DF6951"/>
<path d="M18.1627 8.04022L18.1282 7.98201L18.1111 7.9528C18.1057 7.94363 18.1002 7.93082 18.0893 7.92803C18.0852 7.92696 18.0787 7.93399 18.0784 7.9387C18.0777 7.95226 18.0861 7.96239 18.0917 7.97126L18.1094 7.99948L18.1449 8.05577C18.1499 8.06362 18.1675 8.04838 18.1627 8.04022Z" fill="#DF6951"/>
<path d="M17.9108 7.92527L17.8744 7.93356C17.8619 7.93639 17.8494 7.93861 17.8364 7.94359C17.8318 7.94525 17.8264 7.95253 17.8252 7.95727C17.8238 7.96282 17.8255 7.96637 17.8295 7.96697C17.8256 7.9664 17.8325 7.96741 17.8336 7.96754L17.8372 7.96767L17.845 7.96749L17.8627 7.96746L17.8935 7.96756C17.9034 7.96769 17.9162 7.95769 17.9215 7.94463C17.9268 7.93195 17.9218 7.92281 17.9108 7.92527Z" fill="#DF6951"/>
<path d="M17.8158 7.47102C17.8028 7.4846 17.8113 7.49857 17.8243 7.48491C17.8372 7.47138 17.8288 7.45734 17.8158 7.47102Z" fill="#DF6951"/>
<path d="M17.8618 7.22906L17.8004 7.20221C17.7891 7.19737 17.7689 7.22424 17.7802 7.22904L17.8418 7.25547C17.853 7.26019 17.873 7.23393 17.8618 7.22906Z" fill="#DF6951"/>
<path d="M18.0363 6.97041L18.039 6.96745L18.0403 6.96605C18.0409 6.96528 18.0413 6.96476 18.0422 6.96354C18.0434 6.96214 18.0443 6.96069 18.045 6.95919L18.047 6.95545L18.0447 6.95882L18.0526 6.94786C18.0554 6.9439 18.0566 6.9392 18.0544 6.93716C18.0536 6.93638 18.0524 6.93594 18.051 6.93586C18.0489 6.93573 18.0464 6.93705 18.0439 6.93861L18.0356 6.94377L18.0389 6.94195L18.0315 6.94571L18.0356 6.94382L18.0323 6.9453C18.0299 6.94646 18.0298 6.94646 18.0275 6.94815L18.0234 6.95139L18.0189 6.95512C18.0148 6.95849 18.0119 6.96338 18.0102 6.96753C18.0091 6.97059 18.0088 6.97328 18.0093 6.97564C18.0096 6.97741 18.0104 6.9787 18.0117 6.97956C18.0126 6.98072 18.014 6.98135 18.0159 6.98148C18.0176 6.98176 18.0196 6.98147 18.0218 6.98062C18.024 6.98013 18.0262 6.97909 18.0285 6.97748C18.0314 6.97556 18.034 6.97321 18.0363 6.97041Z" fill="#DF6951"/>
<path d="M17.8091 6.84088C17.7816 6.86734 17.8065 6.88813 17.8338 6.86185C17.8613 6.83552 17.8365 6.81457 17.8091 6.84088Z" fill="#DF6951"/>
<path d="M18.03 7.54141C18.0101 7.56134 18.0267 7.57935 18.0465 7.55948C18.0663 7.53962 18.0499 7.52143 18.03 7.54141Z" fill="#DF6951"/>
<path d="M17.7044 7.72249L17.6909 7.73151L17.6964 7.72778C17.6731 7.74325 17.6492 7.75756 17.6261 7.77469C17.62 7.77909 17.6149 7.78516 17.6137 7.79197C17.6127 7.79768 17.6159 7.80216 17.6218 7.79957C17.6457 7.78892 17.669 7.7785 17.692 7.76821L17.6868 7.77039L17.6987 7.76546C17.7115 7.7601 17.724 7.74558 17.7259 7.73213C17.7275 7.7199 17.7177 7.71368 17.7044 7.72249Z" fill="#DF6951"/>
<path d="M18.0607 7.66316C18.036 7.6889 18.0586 7.71023 18.0833 7.68475C18.1081 7.65972 18.0857 7.638 18.0607 7.66316Z" fill="#DF6951"/>
<path d="M17.6037 7.84567C17.5803 7.86666 17.5567 7.88812 17.5345 7.91197C17.5238 7.92332 17.528 7.93571 17.5393 7.92731C17.5651 7.90691 17.5874 7.88924 17.6105 7.87091C17.6189 7.86444 17.625 7.85137 17.6229 7.84513C17.6208 7.83901 17.6124 7.83772 17.6037 7.84567Z" fill="#DF6951"/>
<path d="M17.8162 8.09761C17.7939 8.12555 17.8183 8.1445 17.8404 8.117C17.8631 8.09002 17.8391 8.07037 17.8162 8.09761Z" fill="#DF6951"/>
<path d="M17.8521 8.16328C17.8529 8.19612 17.8649 8.22294 17.8867 8.23567C17.8982 8.2424 17.9123 8.24538 17.9273 8.2457C17.9445 8.24603 17.9644 8.23743 17.9844 8.22685C17.9982 8.21942 17.9981 8.20112 17.9865 8.20337C17.9714 8.20635 17.9573 8.20353 17.9448 8.20044C17.9345 8.19788 17.926 8.19295 17.9187 8.18616C17.9155 8.18321 17.9124 8.1802 17.9097 8.17668L17.9057 8.17077L17.9039 8.16761C17.9047 8.16924 17.9047 8.16903 17.9037 8.16698C17.902 8.16219 17.9002 8.15747 17.8991 8.15213C17.899 8.15143 17.8979 8.14381 17.8983 8.14726L17.8979 8.13842C17.8978 8.12635 17.8884 8.12093 17.8755 8.12772C17.8632 8.13402 17.8517 8.15094 17.8521 8.16328Z" fill="#DF6951"/>
<path d="M18.2722 8.28913C18.2459 8.31878 18.277 8.34132 18.3028 8.31222C18.3287 8.28288 18.2983 8.25963 18.2722 8.28913Z" fill="#DF6951"/>
<path d="M18.5708 8.27465C18.5691 8.27641 18.5707 8.27822 18.5724 8.27646C18.5741 8.2747 18.5725 8.27288 18.5708 8.27465Z" fill="#DF6951"/>
<path d="M19.2564 7.95332L19.2758 7.9344C19.2774 7.93279 19.2785 7.93048 19.2776 7.92934C19.2767 7.92828 19.2747 7.92846 19.2728 7.93012L19.2524 7.94845C19.2503 7.95031 19.2493 7.95337 19.2505 7.95456C19.2516 7.95575 19.2542 7.95544 19.2564 7.95332Z" fill="#DF6951"/>
<path d="M19.5367 7.69486L19.554 7.67765L19.5523 7.67931L19.5573 7.67436C19.5587 7.67294 19.5599 7.67022 19.5601 7.66876C19.5602 7.66731 19.56 7.66617 19.5592 7.66534C19.5575 7.66356 19.5536 7.66407 19.5503 7.66695L19.5294 7.68533C19.5254 7.68888 19.5234 7.69468 19.5255 7.69701C19.5266 7.69818 19.5283 7.69888 19.5304 7.69834C19.5325 7.69787 19.5349 7.69676 19.5367 7.69486Z" fill="#DF6951"/>
<path d="M19.8753 7.28939C19.8576 7.30603 19.8691 7.32562 19.887 7.30883C19.9048 7.29219 19.8933 7.27257 19.8753 7.28939Z" fill="#DF6951"/>
<path d="M20.1204 6.86813L20.0428 6.86557C20.0304 6.86513 20.0173 6.86645 20.0045 6.86691L19.9634 6.86764C19.9538 6.8678 19.9428 6.88563 19.9518 6.88739L19.9878 6.89415C20.0002 6.89669 20.0118 6.90022 20.0248 6.90182L20.0973 6.91136C20.1069 6.91258 20.1212 6.90195 20.1271 6.89076C20.1333 6.87923 20.1304 6.86847 20.1204 6.86813Z" fill="#DF6951"/>
<path d="M19.6221 6.83413L19.5211 6.86331L19.4713 6.8777C19.4542 6.88265 19.4369 6.88607 19.4192 6.89592C19.4117 6.90006 19.4061 6.91165 19.414 6.91186C19.4218 6.91206 19.4283 6.91147 19.4371 6.90903L19.4614 6.9024L19.5131 6.8883L19.6149 6.86049C19.6318 6.85593 19.6391 6.82921 19.6221 6.83413Z" fill="#DF6951"/>
<path d="M19.6332 6.85379L19.7172 6.74235L19.7584 6.68766C19.7735 6.66768 19.7969 6.64127 19.8007 6.62106C19.8027 6.61059 19.7906 6.60895 19.7809 6.61546C19.7929 6.60742 19.771 6.62321 19.7697 6.6244C19.7652 6.6285 19.7618 6.63306 19.7582 6.6377L19.7349 6.66773L19.6917 6.72475L19.6037 6.84091C19.5835 6.8675 19.613 6.88054 19.6332 6.85379Z" fill="#DF6951"/>
<path d="M19.4303 6.68493C19.4037 6.6953 19.3768 6.70577 19.3504 6.71606C19.3232 6.72684 19.2953 6.74096 19.268 6.75345C19.2583 6.75786 19.2552 6.77305 19.2652 6.76986L19.3058 6.75685C19.32 6.75221 19.3342 6.74827 19.3487 6.74265L19.4246 6.71305C19.4325 6.70996 19.4403 6.70229 19.442 6.69428C19.4434 6.68713 19.4383 6.68182 19.4303 6.68493Z" fill="#DF6951"/>
<path d="M19.1989 6.80656L19.2192 6.78717C19.2215 6.78492 19.2194 6.78235 19.217 6.78458L19.1969 6.80301C19.1955 6.80425 19.1947 6.80596 19.1953 6.80695C19.1958 6.80785 19.1976 6.80785 19.1989 6.80656Z" fill="#DF6951"/>
<path d="M19.5872 6.53446L19.5222 6.57281L19.492 6.5907C19.4842 6.59583 19.4774 6.60024 19.4703 6.60487C19.4632 6.60959 19.4561 6.61457 19.4546 6.62255C19.4529 6.63144 19.4599 6.63235 19.4681 6.6289C19.4739 6.6262 19.4792 6.62369 19.4847 6.62115C19.4963 6.61488 19.5064 6.60944 19.5169 6.60373L19.5864 6.56551C19.5955 6.56048 19.6046 6.55029 19.6043 6.54164C19.6041 6.53433 19.5969 6.52868 19.5872 6.53446Z" fill="#DF6951"/>
<path d="M18.909 6.96997C18.8879 6.98972 18.9073 7.00729 18.9283 6.98762C18.9493 6.96787 18.9299 6.9503 18.909 6.96997Z" fill="#DF6951"/>
<path d="M18.8464 7.01271L18.7904 7.0448C18.7686 7.05729 18.7457 7.06921 18.725 7.08598C18.7135 7.09534 18.7174 7.10741 18.7281 7.10384C18.7492 7.09679 18.7714 7.08308 18.7927 7.07123L18.8521 7.03809C18.8609 7.03316 18.8668 7.02132 18.8654 7.01494C18.8638 7.00763 18.8553 7.00766 18.8464 7.01271Z" fill="#DF6951"/>
<path d="M19.289 6.52738L19.239 6.53057L19.2439 6.53025C19.2349 6.5308 19.2264 6.53031 19.2162 6.53404C19.212 6.53557 19.2084 6.53723 19.2044 6.54073C19.201 6.54373 19.1976 6.54759 19.1958 6.55148C19.192 6.55978 19.1931 6.56659 19.1988 6.56908C19.1956 6.56768 19.2007 6.56991 19.2013 6.57014C19.2034 6.571 19.2055 6.57188 19.2081 6.57203L19.2158 6.5725L19.2306 6.57333L19.2612 6.57486L19.2561 6.57452L19.2644 6.57507C19.27 6.57543 19.2752 6.5745 19.2818 6.57092C19.2893 6.5668 19.2959 6.55931 19.2997 6.55197C19.3073 6.53718 19.3019 6.52665 19.289 6.52738Z" fill="#DF6951"/>
<path d="M19.7974 6.11582C19.7752 6.13666 19.789 6.1618 19.8114 6.1407C19.8336 6.11986 19.8198 6.09472 19.7974 6.11582Z" fill="#DF6951"/>
<path d="M20.0186 6.00034C20.0013 6.01649 20.0118 6.03621 20.0293 6.01986C20.0465 6.00371 20.0361 5.98399 20.0186 6.00034Z" fill="#DF6951"/>
<path d="M20.3818 5.93262C20.3766 5.93736 20.3807 5.94221 20.3858 5.93749C20.391 5.93275 20.3869 5.9279 20.3818 5.93262Z" fill="#DF6951"/>
<path d="M20.3921 5.95663C20.3775 5.97752 20.3774 5.99709 20.3858 6.00914C20.3892 6.01404 20.3951 6.01824 20.4023 6.01842C20.4139 6.0187 20.4263 6.01417 20.4391 6.00411C20.4441 6.00025 20.4471 5.9926 20.446 5.98895C20.4447 5.98493 20.4404 5.98327 20.4347 5.98576L20.4329 5.98654C20.4321 5.98685 20.4315 5.98672 20.4324 5.98672C20.4336 5.98675 20.4317 5.98685 20.4317 5.98685L20.4303 5.98716C20.4303 5.98716 20.4275 5.98768 20.4301 5.98727C20.4325 5.98685 20.4299 5.98719 20.4299 5.98719L20.428 5.98724C20.428 5.98724 20.4255 5.98716 20.4278 5.98727C20.4301 5.98737 20.4272 5.98706 20.4265 5.9869C20.426 5.98677 20.4231 5.98587 20.4253 5.98659C20.4275 5.98732 20.4249 5.9862 20.4244 5.98592L20.4221 5.98454L20.4202 5.98351L20.4193 5.98299C20.4181 5.98224 20.4219 5.98509 20.4206 5.98384L20.4177 5.98068L20.417 5.97967C20.4162 5.97874 20.4186 5.98294 20.4178 5.98104L20.4169 5.97897L20.4156 5.97418L20.4163 5.97801C20.4159 5.97568 20.4159 5.97324 20.4162 5.9706L20.4156 5.97511L20.4164 5.97083L20.4172 5.96829C20.4155 5.9742 20.4158 5.97192 20.4166 5.97016L20.4176 5.96788C20.418 5.96705 20.4199 5.96384 20.4177 5.96765C20.4155 5.97143 20.4174 5.96822 20.4179 5.96739L20.4198 5.96474C20.427 5.95528 20.4259 5.94396 20.4185 5.94227C20.4106 5.94048 20.3993 5.94639 20.3921 5.95663Z" fill="#DF6951"/>
<path d="M20.6586 6.22855C20.6399 6.24612 20.6535 6.26538 20.6724 6.2477C20.6911 6.23011 20.6775 6.21085 20.6586 6.22855Z" fill="#DF6951"/>
<path d="M20.6237 6.31743L20.5351 6.4232C20.5327 6.42605 20.5354 6.42812 20.5379 6.42524L20.6282 6.32C20.6319 6.31575 20.6273 6.3131 20.6237 6.31743Z" fill="#DF6951"/>
<path d="M20.4908 6.5726L20.4108 6.56091C20.4071 6.56037 20.4031 6.56742 20.4067 6.56809L20.4846 6.58284C20.4904 6.58398 20.4969 6.57351 20.4908 6.5726Z" fill="#DF6951"/>
<path d="M20.1589 6.38584L20.1672 6.37618L20.1626 6.38149L20.1874 6.35326L20.1838 6.35749C20.1861 6.35482 20.1883 6.35228 20.1909 6.34932C20.192 6.34777 20.194 6.345 20.1948 6.34388L20.1968 6.33971L20.1979 6.33554C20.1983 6.33222 20.1974 6.32963 20.1956 6.32789C20.1923 6.32478 20.1858 6.32509 20.1794 6.32921C20.183 6.32698 20.1837 6.32652 20.1816 6.32787L20.1794 6.32921L20.1761 6.33131C20.1737 6.3331 20.1718 6.33453 20.1697 6.33605L20.1524 6.34945L20.1577 6.34549L20.1387 6.35987C20.1327 6.36446 20.1282 6.37053 20.1253 6.37664C20.1217 6.38398 20.1223 6.39046 20.1253 6.39447C20.1281 6.39807 20.1324 6.39927 20.1384 6.39813C20.145 6.39686 20.1531 6.39258 20.1589 6.38584Z" fill="#DF6951"/>
<path d="M20.1604 6.36073L20.0978 6.30842C20.0776 6.29155 20.0589 6.2724 20.0354 6.25931C20.0308 6.25677 20.0198 6.2661 20.0234 6.27069C20.0401 6.29166 20.0627 6.30734 20.0832 6.32462L20.1443 6.37643C20.1507 6.3819 20.1669 6.36617 20.1604 6.36073Z" fill="#DF6951"/>
<path d="M19.3151 6.56426C19.2895 6.58829 19.3125 6.61032 19.3381 6.58632C19.3636 6.56227 19.3406 6.54026 19.3151 6.56426Z" fill="#DF6951"/>
<path d="M19.2381 6.31977L19.1322 6.34118C19.0981 6.34807 19.0644 6.35398 19.0292 6.36471C19.0123 6.36984 19.0061 6.39239 19.0216 6.3905C19.0311 6.38933 19.0404 6.38907 19.0503 6.387L19.0754 6.38161L19.1255 6.37083L19.2324 6.34787C19.24 6.34623 19.2483 6.33607 19.2498 6.3291C19.2515 6.32073 19.2457 6.31821 19.2381 6.31977Z" fill="#DF6951"/>
<path d="M18.8595 6.24087L18.8414 6.23988L18.8177 6.23981C18.8131 6.23986 18.8073 6.24442 18.8045 6.24934C18.8016 6.25455 18.8023 6.25912 18.8061 6.26039L18.8248 6.26622L18.8433 6.27101C18.8502 6.27275 18.8609 6.26575 18.8657 6.25683C18.868 6.25258 18.8686 6.24893 18.8677 6.24579C18.8674 6.24424 18.8666 6.24305 18.8654 6.24224C18.8639 6.24115 18.8619 6.24069 18.8595 6.24087Z" fill="#DF6951"/>
<path d="M18.6107 6.28802L18.5052 6.35335C18.488 6.36406 18.4705 6.37486 18.4535 6.38541C18.4351 6.39694 18.4137 6.40915 18.3975 6.42525C18.3857 6.43701 18.385 6.45583 18.4001 6.45147C18.4201 6.44577 18.442 6.4309 18.4622 6.41851C18.4802 6.40723 18.4975 6.39637 18.5152 6.38531L18.6191 6.32013C18.6461 6.30315 18.6376 6.27135 18.6107 6.28802Z" fill="#DF6951"/>
<path d="M18.2189 6.50591C18.2002 6.52348 18.2138 6.54274 18.2327 6.52506C18.2515 6.50749 18.2378 6.48823 18.2189 6.50591Z" fill="#DF6951"/>
<path d="M17.8792 6.65526C17.8671 6.66669 17.8785 6.67607 17.8904 6.66477C17.9024 6.65335 17.8911 6.64394 17.8792 6.65526Z" fill="#DF6951"/>
<path d="M17.4876 7.01422C17.4765 7.02575 17.485 7.03488 17.496 7.02342C17.5069 7.0123 17.4985 7.0031 17.4876 7.01422Z" fill="#DF6951"/>
<path d="M17.4398 7.55766C17.4061 7.5976 17.4294 7.63181 17.463 7.592C17.4965 7.55356 17.4739 7.51912 17.4398 7.55766Z" fill="#DF6951"/>
<path d="M17.1322 8.03524C17.1241 8.04719 17.1314 8.05496 17.1394 8.04299C17.1475 8.0312 17.1404 8.02348 17.1322 8.03524Z" fill="#DF6951"/>
<path d="M17.4056 8.64529C17.382 8.69041 17.4185 8.71065 17.4415 8.66662C17.4645 8.62253 17.4291 8.60024 17.4056 8.64529Z" fill="#DF6951"/>
<path d="M17.6948 8.36173C17.6751 8.39029 17.6996 8.40807 17.7191 8.37982C17.7385 8.35162 17.7146 8.33309 17.6948 8.36173Z" fill="#DF6951"/>
<path d="M17.5017 8.11503C17.487 8.12933 17.4728 8.14444 17.4588 8.15984L17.4644 8.15372C17.4588 8.15992 17.4536 8.16564 17.4485 8.17124L17.4456 8.17464C17.4407 8.18039 17.438 8.1848 17.4338 8.19143C17.4283 8.20024 17.4267 8.20999 17.429 8.21525C17.4315 8.22087 17.4376 8.221 17.4449 8.21688C17.4479 8.21515 17.4511 8.21349 17.4542 8.21108C17.4571 8.20849 17.4605 8.20558 17.4628 8.20353L17.4712 8.19594L17.4863 8.18151L17.5175 8.15212C17.5234 8.1468 17.5293 8.13672 17.5319 8.1297C17.5345 8.12257 17.5353 8.1143 17.5331 8.11003C17.5283 8.10044 17.515 8.10176 17.5017 8.11503Z" fill="#DF6951"/>
<path d="M17.4495 8.15943C17.4182 8.18641 17.3853 8.21144 17.355 8.24236C17.3499 8.24744 17.3507 8.2555 17.356 8.25073C17.3892 8.22124 17.4191 8.1946 17.4501 8.16713C17.4549 8.16293 17.4545 8.15528 17.4495 8.15943Z" fill="#DF6951"/>
<path d="M18.6213 8.31462L18.61 8.30448C18.6088 8.30339 18.6073 8.30277 18.6052 8.30321C18.6035 8.3036 18.6011 8.3049 18.5996 8.30656C18.596 8.31044 18.595 8.31501 18.597 8.31775L18.6036 8.32701L18.6026 8.32558L18.6057 8.32991C18.6063 8.33107 18.6072 8.33185 18.6084 8.33227L18.6105 8.33255C18.6131 8.3326 18.6161 8.33092 18.6184 8.32859C18.6231 8.324 18.6244 8.31747 18.6213 8.31462Z" fill="#DF6951"/>
<path d="M18.5973 8.40111L18.597 8.43729C18.597 8.44335 18.5967 8.44967 18.5973 8.45545C18.5977 8.45895 18.5979 8.46274 18.5987 8.46598C18.6006 8.47315 18.606 8.47961 18.6154 8.47331C18.6189 8.47098 18.6218 8.4675 18.6233 8.46351C18.6242 8.46118 18.6245 8.45898 18.6242 8.45693C18.6239 8.46103 18.6241 8.46167 18.6248 8.45887C18.6258 8.45566 18.6265 8.4532 18.6268 8.45001L18.6274 8.44488C18.6283 8.43713 18.6281 8.42974 18.6282 8.42225L18.6289 8.38542C18.629 8.37736 18.62 8.3742 18.612 8.37853C18.6029 8.38345 18.5974 8.39247 18.5973 8.40111Z" fill="#DF6951"/>
<path d="M19.2488 8.11184C19.2271 8.13219 19.2397 8.15756 19.2618 8.13693C19.2835 8.11661 19.2709 8.09121 19.2488 8.11184Z" fill="#DF6951"/>
<path d="M19.5877 7.88192C19.566 7.90227 19.5786 7.92764 19.6007 7.90701C19.6224 7.88669 19.6097 7.86129 19.5877 7.88192Z" fill="#DF6951"/>
<path d="M19.9091 7.6784C19.8991 7.68788 19.9072 7.69744 19.9171 7.68799C19.9271 7.6785 19.9191 7.66894 19.9091 7.6784Z" fill="#DF6951"/>
<path d="M18.8028 8.35194C18.7965 8.35798 18.8033 8.36345 18.8096 8.35746C18.8159 8.35145 18.809 8.34598 18.8028 8.35194Z" fill="#DF6951"/>
<path d="M18.2792 8.72052C18.2712 8.73081 18.2835 8.73854 18.2914 8.72838C18.2994 8.71811 18.2872 8.71029 18.2792 8.72052Z" fill="#DF6951"/>
<path d="M18.0267 8.71125L18.0124 8.72522L18.0158 8.7218L18.0012 8.7359C17.9975 8.74007 17.9943 8.74357 17.9912 8.74701C17.9876 8.75139 17.985 8.75767 17.9865 8.76223C17.9879 8.76645 17.9918 8.76886 17.9964 8.76674L18.0031 8.76355C18.0063 8.7616 18.009 8.76 18.0118 8.75829L18.0235 8.75072L18.0198 8.75303L18.037 8.7423C18.0462 8.73623 18.0521 8.72247 18.0494 8.71324C18.0465 8.70376 18.036 8.70288 18.0267 8.71125Z" fill="#DF6951"/>
<path d="M18.4289 8.39255L18.3624 8.40872C18.3382 8.41484 18.3122 8.41875 18.288 8.43197C18.2771 8.43783 18.2746 8.45509 18.2846 8.45517C18.3066 8.4554 18.3308 8.44617 18.3549 8.44006L18.4217 8.42292C18.4291 8.42106 18.4366 8.41414 18.4387 8.40551C18.4408 8.39771 18.4365 8.39079 18.4289 8.39255Z" fill="#DF6951"/>
<path d="M17.7721 8.65389C17.7629 8.66973 17.7767 8.68025 17.7857 8.66449C17.7955 8.6491 17.7819 8.63834 17.7721 8.65389Z" fill="#DF6951"/>
<path d="M20.3472 7.03918L20.3398 7.04455L20.3461 7.04001L20.3129 7.06344L20.3021 7.07124C20.297 7.07484 20.2914 7.07881 20.2867 7.08221C20.2821 7.08599 20.278 7.08944 20.2737 7.09304C20.2672 7.09833 20.263 7.10799 20.2645 7.11305C20.266 7.11836 20.2716 7.1208 20.279 7.11761C20.2862 7.11452 20.2933 7.11144 20.3004 7.10747L20.3175 7.09799L20.3118 7.10105L20.3534 7.07834C20.3661 7.07127 20.3767 7.05393 20.3745 7.04413C20.3734 7.03918 20.3705 7.03511 20.365 7.03452C20.3602 7.03403 20.3532 7.03488 20.3472 7.03918Z" fill="#DF6951"/>
<path d="M20.1598 7.20972C20.1311 7.23676 20.1525 7.26581 20.1814 7.2387C20.2101 7.21167 20.1887 7.18261 20.1598 7.20972Z" fill="#DF6951"/>
<path d="M20.3604 7.28501C20.3586 7.28672 20.3603 7.28823 20.3621 7.28652C20.3639 7.28481 20.3622 7.28333 20.3604 7.28501Z" fill="#DF6951"/>
<path d="M20.5969 7.01774C20.5667 7.04612 20.5928 7.0731 20.6229 7.0448C20.6531 7.01642 20.627 6.98944 20.5969 7.01774Z" fill="#DF6951"/>
<path d="M20.1692 6.62276C20.1522 6.63864 20.1689 6.65173 20.1857 6.63603C20.2027 6.62014 20.186 6.60703 20.1692 6.62276Z" fill="#DF6951"/>
<path d="M19.8826 6.52373C19.87 6.53565 19.8779 6.54996 19.8906 6.5379C19.9032 6.52598 19.8953 6.51168 19.8826 6.52373Z" fill="#DF6951"/>
<path d="M19.5776 6.17199C19.5471 6.18137 19.5168 6.19068 19.4869 6.19985C19.482 6.20141 19.4772 6.2061 19.4755 6.21102C19.4738 6.21569 19.4755 6.21984 19.4801 6.21945C19.5093 6.21647 19.538 6.21354 19.5668 6.21058C19.5778 6.20942 19.5906 6.19729 19.5938 6.18591C19.5972 6.17365 19.5893 6.16852 19.5776 6.17199Z" fill="#DF6951"/>
<path d="M19.2807 5.94591L19.1818 6.00251C19.1688 6.00992 19.1689 6.02801 19.182 6.02247C19.2149 6.0085 19.2473 5.99468 19.2803 5.98066C19.2923 5.97564 19.3029 5.9633 19.303 5.95236C19.3031 5.94161 19.2928 5.93907 19.2807 5.94591Z" fill="#DF6951"/>
<path d="M18.7016 6.02062C18.6434 6.0751 18.6868 6.1337 18.7452 6.07901C18.8035 6.02451 18.7601 5.96594 18.7016 6.02062Z" fill="#DF6951"/>
<path d="M17.5728 6.87354C17.5487 6.89723 17.5628 6.92226 17.5871 6.89837C17.6111 6.87478 17.5972 6.84959 17.5728 6.87354Z" fill="#DF6951"/>
<path d="M17.2709 7.27091L17.258 7.29146L17.2639 7.28193C17.2537 7.29794 17.2437 7.31365 17.2333 7.32985L17.2191 7.35284C17.2161 7.35763 17.2133 7.3623 17.2101 7.3674C17.2075 7.37266 17.204 7.37951 17.2008 7.38567C17.1982 7.39091 17.1956 7.39627 17.1948 7.40091C17.1936 7.40835 17.1968 7.41325 17.2027 7.41312C17.2095 7.41296 17.2191 7.40651 17.2267 7.39734C17.229 7.39415 17.2298 7.39329 17.2288 7.3948C17.2282 7.3957 17.2285 7.39542 17.2297 7.39394L17.2341 7.38871C17.2475 7.37264 17.2591 7.35667 17.2711 7.34073L17.2649 7.34882C17.2815 7.32702 17.2982 7.30502 17.3153 7.28257C17.3217 7.27402 17.3258 7.26223 17.3262 7.25531C17.3266 7.24803 17.3236 7.24157 17.3178 7.24049C17.306 7.23831 17.2838 7.25039 17.2709 7.27091Z" fill="#DF6951"/>
<path d="M16.8591 8.23343C16.8428 8.2644 16.8613 8.27816 16.8777 8.2473C16.8939 8.21666 16.8757 8.2023 16.8591 8.23343Z" fill="#DF6951"/>
<path d="M17.1401 8.25047C17.1281 8.27129 17.1419 8.28183 17.1538 8.2611C17.1657 8.24047 17.1522 8.22961 17.1401 8.25047Z" fill="#DF6951"/>
<path d="M17.1133 7.80281C17.0932 7.83028 17.1122 7.8451 17.1323 7.81781C17.1523 7.79068 17.1336 7.77541 17.1133 7.80281Z" fill="#DF6951"/>
<path d="M16.9935 8.55632C16.962 8.62425 17.0063 8.6525 17.0371 8.58597C17.0678 8.5199 17.0252 8.48826 16.9935 8.55632Z" fill="#DF6951"/>
<path d="M17.2543 8.69538C17.2429 8.71966 17.2596 8.73371 17.2709 8.7094C17.2821 8.6854 17.2658 8.67081 17.2543 8.69538Z" fill="#DF6951"/>
<path d="M17.8155 8.49449C17.7996 8.51743 17.8222 8.53002 17.8379 8.50745C17.8536 8.48475 17.8314 8.47161 17.8155 8.49449Z" fill="#DF6951"/>
<path d="M17.6681 8.88948C17.6649 8.89638 17.6714 8.89923 17.6746 8.89244C17.6777 8.88557 17.6712 8.88264 17.6681 8.88948Z" fill="#DF6951"/>
<path d="M17.6554 8.90962L17.6861 8.95389C17.6974 8.96996 17.7082 8.98768 17.7249 8.99515C17.7354 8.99981 17.7484 8.98242 17.7446 8.96863C17.7426 8.96176 17.7409 8.95422 17.7376 8.94863L17.7285 8.93349L17.7146 8.91335L17.6872 8.8724C17.682 8.86458 17.6718 8.86297 17.6629 8.87416C17.6551 8.88391 17.6498 8.90138 17.6554 8.90962Z" fill="#DF6951"/>
<path d="M18.1012 8.43346C18.0902 8.44748 18.1026 8.45981 18.1136 8.44587C18.1245 8.43195 18.1123 8.41941 18.1012 8.43346Z" fill="#DF6951"/>
<path d="M18.4394 8.62235C18.4316 8.63122 18.4412 8.63969 18.449 8.63088C18.4568 8.62207 18.4473 8.61349 18.4394 8.62235Z" fill="#DF6951"/>
<path d="M18.7526 8.47463C18.73 8.49819 18.749 8.52724 18.7717 8.50363C18.7942 8.48025 18.7755 8.45084 18.7526 8.47463Z" fill="#DF6951"/>
<path d="M19.2746 8.14703C19.2458 8.17406 19.2673 8.20311 19.2962 8.17598C19.3249 8.14894 19.3035 8.11989 19.2746 8.14703Z" fill="#DF6951"/>
</g>
<path d="M43.2413 5.6284C41.4308 5.2092 39.431 6.44242 38.7741 8.38309C38.2197 10.0209 39.3043 14.2601 39.6561 15.5417C39.706 15.7262 39.9251 15.7769 40.0837 15.6407C41.1873 14.6961 44.7741 11.5384 45.3284 9.90064C45.9853 7.95998 45.0503 6.04724 43.2413 5.6284ZM41.4944 10.7895C40.6451 10.5929 40.2074 9.69497 40.5151 8.78619C40.8232 7.87579 41.7603 7.29792 42.6096 7.49457C43.4575 7.69088 43.8956 8.58715 43.5875 9.49756C43.2799 10.4063 42.3422 10.9858 41.4944 10.7895Z" fill="#212832"/>
<path d="M47.9012 30.1891C47.9012 34.4117 46.1762 38.3792 43.0474 41.3633C39.9185 44.3491 35.7568 45.9925 31.3311 45.9925C31.3311 45.9925 31.3311 45.9925 31.3294 45.9925C26.9037 45.9925 22.7438 44.3491 19.6131 41.3633C19.4615 41.2204 19.3777 41.0247 19.3777 40.8223C19.3777 40.6198 19.4615 40.4242 19.6131 40.2812L21.4237 38.5544C21.7787 38.9372 22.1569 39.2979 22.5583 39.6365L21.331 40.8087C24.0817 43.1701 27.6012 44.4614 31.3294 44.4614C31.3312 44.4614 31.3312 44.4614 31.3312 44.4614C35.327 44.4614 39.0855 42.9762 41.9129 40.2813C44.7385 37.5864 46.2958 34.0018 46.2958 30.1892C46.2958 26.6334 44.9418 23.2768 42.4659 20.6533L41.2368 21.8238C40.8818 21.441 40.5036 21.0804 40.1023 20.7418L41.9128 19.015C42.225 18.7156 42.7334 18.7156 43.0474 19.015C46.178 21.999 47.9012 25.9682 47.9012 30.1891Z" fill="#DF6951"/>
<path d="M44.5638 30.1891C44.5638 36.0229 40.4128 40.9311 34.7759 42.3773C33.6771 42.6597 32.5229 42.8094 31.3313 42.8094C24.9791 42.8094 19.6704 38.5391 18.3932 32.8414C18.2005 31.9857 18.0989 31.0993 18.0989 30.1891C18.0989 23.2206 24.0248 17.5706 31.3313 17.5706C32.5372 17.5706 33.7039 17.7237 34.8134 18.0129C39.4906 19.2259 43.1386 22.8259 44.2285 27.3548C44.4479 28.2666 44.5638 29.2143 44.5638 30.1891Z" fill="white"/>
<path d="M34.8128 18.0132C34.7615 18.2291 34.6693 18.4363 34.5284 18.6234C34.0123 19.3053 33.0235 19.4824 32.1427 19.4485C31.2606 19.4146 30.3679 19.2262 29.5068 19.3995C28.6431 19.5753 27.7978 20.281 27.9058 21.116C27.9808 21.7025 28.4838 22.1407 28.8577 22.6129C29.2316 23.0863 29.4778 23.797 29.0591 24.234C28.7037 24.6057 28.0835 24.553 27.5714 24.4387C26.9736 24.3081 26.2876 24.1448 25.8308 24.6333C25.6096 24.8706 25.5266 25.1971 25.5622 25.5136C25.6701 26.4666 26.5154 27.0732 26.8038 27.9333C27.0105 28.5537 26.7419 29.4101 26.0638 29.4955C25.4371 29.5746 24.8775 28.9542 24.2548 29.0547C23.5925 29.1602 23.3634 29.9802 23.4845 30.6105V30.6143C23.4872 30.6307 23.4898 30.647 23.4898 30.662C23.4898 30.7977 23.3779 30.9119 23.2304 30.9119C22.2021 30.9119 21.3687 31.7068 21.3687 32.6875C21.3687 33.3943 20.6353 33.8818 19.9359 33.648C19.3835 33.4634 18.8621 33.1865 18.3931 32.842C18.1667 31.8324 18.0653 30.7813 18.1087 29.6989C18.3734 23.0687 24.0691 17.7231 31.0236 17.5737C32.3389 17.546 33.6095 17.6992 34.8128 18.0132Z" fill="#FFD8DB"/>
<path d="M35.5174 21.2387C34.8472 21.1284 34.0781 21.3091 33.6946 21.8448C33.45 22.1864 33.3894 22.6253 33.14 22.9638C32.8719 23.328 32.383 23.5158 31.9218 23.4748C31.598 23.4461 31.2915 23.6325 31.1889 23.9268C30.9637 24.5734 30.8112 25.2431 30.7355 25.9206C30.6812 26.4073 30.6688 26.9169 30.9679 27.3486C31.0923 27.528 31.2753 27.6708 31.4909 27.734C32.3006 27.9712 32.8493 27.1002 33.5934 26.8361C34.1438 26.6408 34.76 26.7968 35.305 27.0053C35.85 27.2138 36.3912 27.478 36.978 27.5009C37.8336 27.5343 38.6585 27.0084 39.0434 26.2788C39.4282 25.5493 39.399 24.6563 39.0613 23.9058C38.4965 22.6504 36.9316 21.4716 35.5174 21.2387Z" fill="#DF6951"/>
<path d="M44.5637 30.1891C44.5637 36.0229 40.4127 40.9311 34.7757 42.3773C34.3476 42.2905 33.9177 42.2037 33.4896 42.1169C33.1543 42.0489 32.8118 41.9791 32.5228 41.8005C32.2356 41.6236 32.0126 41.3122 32.0465 40.9873C32.0857 40.6181 32.4443 40.3425 32.8207 40.2472C33.1971 40.1519 33.5931 40.1979 33.982 40.2183C34.5243 40.2472 35.0897 40.2234 35.5785 39.9954C36.0673 39.7674 36.4615 39.2945 36.4419 38.7756C36.4222 38.2584 35.8728 37.7769 35.3484 37.9113C34.9238 38.0202 34.6865 38.4319 34.3994 38.7501C34.1122 39.0665 33.5734 39.3047 33.2595 39.0121C33.338 38.5221 32.744 38.1563 32.2249 38.1478C31.704 38.1376 31.1974 38.3366 30.6765 38.3179C30.1574 38.2975 29.5759 37.9028 29.6865 37.4179C29.8221 36.8242 30.7301 36.8089 31.1814 36.3801C31.6826 35.9055 31.4775 35.0956 31.151 34.4985C30.8246 33.9013 30.3965 33.2616 30.5642 32.6066C30.7675 31.8223 31.7825 31.448 32.6138 31.608C33.4451 31.7679 34.1318 32.3038 34.8008 32.7989C35.4697 33.2957 36.21 33.7873 37.0573 33.8316C37.9028 33.8758 38.8393 33.2736 38.8001 32.4654C38.7644 31.7236 37.9617 31.1214 38.067 30.3864C38.1579 29.7484 38.9036 29.3793 39.5761 29.3418C40.2486 29.3061 40.9193 29.4898 41.5936 29.4524C42.6282 29.3928 43.604 28.7634 44.05 27.8719C44.1374 27.6966 44.1944 27.5248 44.2283 27.3547C44.4477 28.2666 44.5637 29.2142 44.5637 30.1891Z" fill="#DF6951"/>
<path d="M32.9046 45.921V48.1026H30.5356V45.9754C30.7996 45.9874 31.0636 45.9925 31.3295 45.9925C31.3312 45.9925 31.3312 45.9925 31.3312 45.9925C31.8592 45.9925 32.3855 45.9687 32.9046 45.921Z" fill="#FFD8DB"/>
<path d="M40.8547 49.4831V50.9059H22.5857V49.4831C22.5857 48.7207 23.2334 48.103 24.0328 48.103H39.4076C40.207 48.103 40.8547 48.7207 40.8547 49.4831Z" fill="#FFD8DB"/>
<path d="M31.3313 46.0867C26.8779 46.0867 22.6921 44.4329 19.5435 41.4298C19.3756 41.2716 19.2791 41.05 19.2791 40.8222C19.2791 40.5944 19.3756 40.3729 19.5439 40.2143L21.354 38.4879C21.3732 38.4695 21.3999 38.4592 21.4269 38.4603C21.4541 38.4611 21.4798 38.4726 21.4978 38.492C21.8486 38.8703 22.2274 39.2316 22.6237 39.5659C22.6442 39.583 22.6562 39.6074 22.657 39.6334C22.6578 39.6594 22.6474 39.6846 22.6282 39.703L21.4747 40.8048C24.1895 43.1028 27.6849 44.3671 31.3294 44.3671C35.3006 44.3671 39.0338 42.8924 41.8431 40.2147C44.6508 37.5368 46.1971 33.9763 46.1971 30.1891C46.1971 26.7131 44.8714 23.3794 42.4618 20.7902L41.3067 21.8905C41.2873 21.9088 41.2613 21.9198 41.2338 21.918C41.2065 21.9171 41.1809 21.9057 41.1629 21.8862C40.8129 21.5087 40.4341 21.1474 40.037 20.8123C40.0165 20.7951 40.0046 20.7706 40.0036 20.7447C40.0029 20.7187 40.0133 20.6935 40.0326 20.6752L41.8431 18.9484C42.0121 18.7862 42.2378 18.6965 42.4782 18.6962C42.4786 18.6962 42.4791 18.6962 42.4795 18.6962C42.7203 18.6962 42.9468 18.7857 43.1173 18.9484C46.266 21.9498 48 25.9418 48 30.1892C48 34.4349 46.266 38.4269 43.1173 41.4299C39.9705 44.4329 35.7848 46.0867 31.3313 46.0867ZM21.4197 38.6915L19.6831 40.3479C19.5517 40.4718 19.4766 40.6444 19.4766 40.8222C19.4766 41 19.5517 41.1728 19.6827 41.2963C22.7945 44.264 26.9306 45.8983 31.3295 45.8983C35.732 45.8983 39.868 44.264 42.9777 41.2967C46.089 38.3293 47.8025 34.3846 47.8025 30.1891C47.8025 25.9921 46.089 22.0473 42.9777 19.0816C42.8445 18.9545 42.6675 18.8846 42.4796 18.8846C42.4792 18.8846 42.4789 18.8846 42.4785 18.8846C42.2909 18.8848 42.1151 18.9547 41.983 19.0814L40.2462 20.7378C40.5947 21.0367 40.9286 21.3553 41.2411 21.6867L42.3961 20.5866C42.4154 20.5684 42.446 20.558 42.4685 20.5592C42.4956 20.5598 42.5212 20.5711 42.5393 20.5902C45.0254 23.2244 46.3946 26.6334 46.3946 30.1891C46.3946 34.0268 44.8278 37.6345 41.9827 40.3479C39.1362 43.0613 35.3533 44.5555 31.3313 44.5555C27.6013 44.5555 24.027 43.2498 21.265 40.8788C21.2449 40.8615 21.2331 40.8371 21.2324 40.8112C21.2317 40.7854 21.2421 40.7604 21.2612 40.7421L22.4147 39.6403C22.0667 39.3421 21.7327 39.0236 21.4197 38.6915Z" fill="#0D2043"/>
<path d="M31.3312 42.9036C28.2627 42.9036 25.2671 41.8848 22.8965 40.0349C20.5582 38.2103 18.9245 35.6626 18.2966 32.8611C18.0998 31.9872 18 31.0882 18 30.1891C18 23.1792 23.9803 17.4763 31.3312 17.4763C32.5244 17.4763 33.7048 17.6263 34.8392 17.922C39.5895 19.154 43.224 22.7603 44.3247 27.3336C44.5489 28.2654 44.6626 29.226 44.6626 30.1891C44.6626 35.9293 40.6075 40.9786 34.8015 42.4682C33.6774 42.757 32.5099 42.9036 31.3312 42.9036ZM31.3312 17.6647C24.0892 17.6647 18.1975 23.2831 18.1975 30.1891C18.1975 31.0749 18.2958 31.9606 18.4897 32.8216C19.7748 38.5544 25.1755 42.7152 31.3312 42.7152C32.4925 42.7152 33.6428 42.5709 34.7501 42.2863C40.4701 40.8189 44.465 35.8443 44.465 30.1891C44.465 29.2402 44.353 28.2937 44.132 27.3758C43.0478 22.8703 39.4672 19.3175 34.7872 18.1037C33.6695 17.8124 32.5068 17.6647 31.3312 17.6647Z" fill="#0D2043"/>
<path d="M20.2997 33.8022C20.1675 33.8022 20.0339 33.7807 19.9035 33.7371C19.351 33.5524 18.8227 33.2765 18.3331 32.9167C18.3145 32.9031 18.3017 32.8837 18.2968 32.8619C18.064 31.8239 17.9676 30.7587 18.0103 29.6955C18.2777 22.9966 23.993 17.6307 31.0216 17.4797C32.3222 17.453 33.608 17.6014 34.8393 17.9225C34.8902 17.9358 34.9212 17.985 34.9094 18.0342C34.8527 18.2721 34.7517 18.4889 34.609 18.6786C33.995 19.4896 32.7977 19.5679 32.139 19.5428C31.8719 19.5325 31.601 19.508 31.3388 19.4843C30.7376 19.4297 30.1157 19.3734 29.5276 19.4919C28.716 19.657 27.9026 20.3206 28.004 21.1047C28.0589 21.5339 28.3709 21.894 28.6725 22.2422C28.7609 22.3444 28.8525 22.45 28.9367 22.5563C29.356 23.0871 29.5789 23.8314 29.1323 24.2977C28.8214 24.6227 28.3038 24.699 27.5491 24.5306L27.5105 24.5221C26.9219 24.3932 26.3129 24.2598 25.9046 24.6963C25.7148 24.8999 25.6258 25.1943 25.6605 25.5038C25.7196 26.0254 26.0067 26.4347 26.3105 26.8681C26.5365 27.1904 26.7703 27.5237 26.8981 27.9048C27.0366 28.3209 26.9764 28.8142 26.7448 29.162C26.5817 29.4069 26.3507 29.5545 26.077 29.589C25.7372 29.6316 25.4282 29.4924 25.1278 29.3578C24.8339 29.226 24.5563 29.1021 24.2714 29.1477C24.0776 29.1786 23.9164 29.2799 23.7921 29.4489C23.5848 29.7305 23.5024 30.1799 23.5818 30.5937C23.583 30.5993 23.5835 30.605 23.5835 30.6107C23.586 30.6231 23.5888 30.6434 23.5888 30.6622C23.5888 30.8519 23.4281 31.0063 23.2306 31.0063C22.2585 31.0063 21.4677 31.7606 21.4677 32.6877C21.4677 33.0528 21.2887 33.3833 20.9768 33.5942C20.7737 33.7316 20.5389 33.8022 20.2997 33.8022ZM18.4823 32.7885C18.9472 33.1257 19.447 33.3849 19.9688 33.5592C20.2742 33.6615 20.6001 33.6182 20.8626 33.4405C21.1216 33.2654 21.2702 32.991 21.2702 32.6877C21.2702 31.6567 22.1497 30.8179 23.2307 30.8179C23.3208 30.8179 23.3914 30.7495 23.3914 30.6622C23.3914 30.6523 23.3892 30.6417 23.3876 30.6309C23.3871 30.628 23.3867 30.6242 23.3863 30.6207C23.3 30.1615 23.3955 29.6599 23.6305 29.3407C23.7841 29.1318 23.9945 29.0009 24.2388 28.962C24.5841 28.9059 24.9035 29.0491 25.2119 29.1873C25.4992 29.316 25.7704 29.4377 26.0511 29.4022C26.3215 29.3682 26.487 29.1979 26.5781 29.0609C26.7767 28.7629 26.8296 28.3213 26.7099 27.962C26.5907 27.6063 26.3748 27.2986 26.1464 26.9728C25.8427 26.5396 25.5286 26.0916 25.4641 25.5238C25.4235 25.1616 25.5304 24.8143 25.7571 24.5709C26.2431 24.0514 26.9703 24.2106 27.5548 24.3385L27.5936 24.347C28.2728 24.4985 28.7282 24.4408 28.9865 24.1707C29.3549 23.7862 29.1372 23.1231 28.7791 22.6696C28.6976 22.5668 28.6074 22.4627 28.5203 22.3621C28.2005 21.993 27.8699 21.6113 27.8081 21.1276C27.693 20.2378 28.5897 19.49 29.4865 19.3075C30.1043 19.1832 30.7416 19.2409 31.3576 19.2967C31.6169 19.3202 31.8852 19.3444 32.1469 19.3545C32.7658 19.3788 33.8889 19.3079 34.4486 18.5685C34.5581 18.423 34.6403 18.259 34.6934 18.0801C33.509 17.7803 32.275 17.6417 31.026 17.668C24.1016 17.8167 18.471 23.103 18.2076 29.7026C18.1661 30.7386 18.2585 31.7766 18.4823 32.7885Z" fill="#0D2043"/>
<path d="M31.7672 27.8688C31.6692 27.8688 31.5678 27.855 31.4621 27.824C31.2332 27.7569 31.0285 27.6065 30.8857 27.4005C30.5718 26.9476 30.5808 26.4168 30.6374 25.9106C30.7138 25.228 30.8678 24.5505 31.0952 23.8971C31.211 23.5653 31.5638 23.348 31.9311 23.381C32.3763 23.42 32.8194 23.2356 33.0594 22.9096C33.1785 22.7478 33.252 22.5616 33.3299 22.3645C33.4066 22.1703 33.4858 21.9695 33.6132 21.7917C34.0388 21.1971 34.8844 21.0388 35.5344 21.1459C36.9836 21.3845 38.5727 22.5805 39.1523 23.8686C39.5193 24.6843 39.5115 25.6012 39.1317 26.3211C38.7119 27.117 37.8393 27.6271 36.9741 27.595C36.4756 27.5755 36.0114 27.3891 35.5625 27.2089C35.4644 27.1695 35.3664 27.1302 35.2683 27.0927C34.8316 26.9256 34.1859 26.7264 33.628 26.9243C33.3694 27.0161 33.127 27.1912 32.8926 27.3607C32.546 27.6113 32.1896 27.8688 31.7672 27.8688ZM31.8572 23.5661C31.5999 23.5661 31.3639 23.7237 31.2827 23.9565C31.0596 24.5971 30.9086 25.2613 30.8339 25.9306C30.7729 26.4751 30.7865 26.9158 31.0505 27.2966C31.168 27.4664 31.3348 27.5897 31.52 27.6439C31.9852 27.7801 32.368 27.5035 32.7733 27.2106C33.0192 27.0329 33.2732 26.8492 33.5591 26.7478C34.1815 26.5272 34.8745 26.7392 35.3419 26.9179C35.441 26.9558 35.54 26.9955 35.6392 27.0353C36.0718 27.2091 36.5193 27.3888 36.982 27.4068C37.766 27.4378 38.5758 26.9561 38.9553 26.2365C39.3093 25.5656 39.3151 24.7082 38.9707 23.943C38.4149 22.7075 36.8907 21.5604 35.5007 21.3316C34.9136 21.2345 34.1525 21.3724 33.7762 21.8979C33.6623 22.0571 33.5905 22.2387 33.5147 22.4309C33.4359 22.6303 33.3545 22.8366 33.2209 23.0179C32.941 23.3982 32.4273 23.6151 31.9129 23.5686C31.8943 23.5669 31.8756 23.5661 31.8572 23.5661Z" fill="#0D2043"/>
<path d="M34.7756 42.4714C34.7687 42.4714 34.7619 42.4707 34.755 42.4693L33.4689 42.209C33.1271 42.1397 32.7738 42.068 32.4689 41.8796C32.1181 41.6634 31.9135 41.3094 31.948 40.9779C31.9939 40.5467 32.4067 40.2545 32.7952 40.1562C33.1301 40.0714 33.4761 40.0931 33.81 40.1138C33.8691 40.1175 33.9283 40.1211 33.9872 40.1242C34.4425 40.1484 35.03 40.1462 35.535 39.9108C35.9512 39.7167 36.3625 39.2914 36.3431 38.779C36.3338 38.5357 36.1896 38.2871 35.9667 38.1301C35.7789 37.9979 35.5687 37.9523 35.3739 38.0024C35.077 38.0785 34.8774 38.3237 34.6662 38.5834C34.6029 38.6611 34.5398 38.7387 34.4741 38.8115C34.2488 39.0597 33.9229 39.2272 33.6436 39.2383C33.4651 39.2448 33.3095 39.1905 33.1903 39.0794C33.1675 39.0582 33.1568 39.0279 33.1617 38.9979C33.1909 38.8157 33.1044 38.6728 33.0267 38.585C32.8496 38.3847 32.5267 38.2469 32.2231 38.242C31.9769 38.2372 31.738 38.2803 31.4842 38.3259C31.2214 38.3732 30.9505 38.4232 30.6728 38.412C30.3162 38.398 29.9409 38.2209 29.7386 37.9713C29.5961 37.7951 29.5446 37.5969 29.59 37.398C29.6818 36.9954 30.0759 36.8323 30.457 36.6745C30.6963 36.5755 30.9437 36.473 31.1116 36.3134C31.6741 35.7807 31.2169 34.8229 31.0634 34.5421C31.0264 34.4744 30.988 34.4061 30.9493 34.3373C30.6353 33.778 30.3106 33.1998 30.4681 32.5844C30.6874 31.7381 31.7649 31.3489 32.6332 31.5157C33.4423 31.6714 34.1085 32.1659 34.7527 32.644L34.8612 32.7244C35.4906 33.1919 36.2315 33.6942 37.0626 33.7376C37.5251 33.7618 38.0165 33.5837 38.3453 33.2727C38.5175 33.1098 38.7193 32.8381 38.7014 32.4699C38.686 32.1485 38.5088 31.8412 38.3374 31.544C38.1263 31.1781 37.9081 30.7996 37.969 30.3737C38.0667 29.6877 38.8485 29.288 39.5702 29.2479C39.9136 29.2295 40.2578 29.2673 40.591 29.3038C40.9187 29.3397 41.2578 29.3764 41.5877 29.3585C42.5786 29.3015 43.5324 28.6878 43.9607 27.8314C44.0414 27.6696 44.0973 27.5079 44.1311 27.3373C44.1398 27.2935 44.1796 27.2615 44.2262 27.2606C44.2731 27.262 44.3139 27.2903 44.3244 27.3337C44.5487 28.2654 44.6624 29.2261 44.6624 30.1892C44.6624 35.9294 40.6073 40.9787 34.8014 42.4683C34.7928 42.4703 34.7842 42.4714 34.7756 42.4714ZM33.3575 40.2835C33.1832 40.2835 33.0108 40.2965 32.8459 40.3382C32.5335 40.4173 32.1808 40.6571 32.1445 40.9968C32.1173 41.2585 32.2867 41.5431 32.5763 41.7214C32.8506 41.8909 33.1859 41.959 33.51 42.0248L34.7728 42.2804C40.4805 40.8055 44.4648 35.8367 44.4648 30.1891C44.4648 29.3668 44.3808 28.5463 44.2145 27.7446C44.192 27.8007 44.1668 27.8565 44.1389 27.9124C43.6735 28.8431 42.6766 29.4844 41.5994 29.5464C41.2522 29.5658 40.9045 29.5276 40.5684 29.4909C40.2436 29.4553 39.9075 29.4188 39.5814 29.4359C38.9406 29.4716 38.2481 29.8139 38.1647 30.3991C38.1125 30.7633 38.3057 31.0984 38.5104 31.4532C38.6926 31.7693 38.8811 32.0961 38.8986 32.4611C38.9152 32.8023 38.768 33.138 38.4842 33.4065C38.1171 33.7536 37.567 33.952 37.0517 33.9257C36.1636 33.8792 35.3928 33.358 34.7399 32.8732L34.6314 32.7926C34.0052 32.3278 33.3577 31.8472 32.5941 31.7003C31.816 31.5505 30.8521 31.888 30.6599 32.6293C30.5203 33.1743 30.8269 33.7203 31.1234 34.2482C31.1624 34.3177 31.2011 34.3866 31.2385 34.4549C31.4078 34.7647 31.909 35.8237 31.2508 36.4469C31.0565 36.6316 30.7917 36.7412 30.5357 36.8472C30.1695 36.9987 29.8533 37.1297 29.7829 37.4379C29.7417 37.6184 29.8212 37.7649 29.895 37.856C30.0635 38.0642 30.3792 38.2119 30.6806 38.2238C30.9358 38.2325 31.184 38.1881 31.4477 38.1408C31.7002 38.0953 31.9616 38.0488 32.2269 38.0536C32.5892 38.0595 32.9626 38.2204 33.1777 38.4634C33.3139 38.6172 33.3774 38.7927 33.3632 38.9737C33.4378 39.0286 33.5274 39.0551 33.6354 39.0501C33.8594 39.0412 34.1364 38.8958 34.3246 38.6883C34.388 38.6182 34.4491 38.5432 34.5103 38.4679C34.7322 38.1951 34.9616 37.9131 35.3227 37.8204C35.5727 37.7567 35.8503 37.814 36.0842 37.9787C36.3542 38.1688 36.5291 38.4729 36.5405 38.7721C36.5631 39.3692 36.0954 39.8592 35.6217 40.08C35.0761 40.3345 34.4557 40.338 33.9763 40.3123C33.9167 40.3091 33.8571 40.3054 33.7972 40.3018C33.6517 40.2927 33.504 40.2835 33.3575 40.2835Z" fill="#0D2043"/>
<path d="M32.9047 48.1968H30.5358C30.4813 48.1968 30.437 48.1546 30.437 48.1026V45.9755C30.437 45.9498 30.4481 45.9251 30.4676 45.9073C30.4872 45.8897 30.5138 45.8788 30.5404 45.8815C30.7915 45.8927 31.0497 45.8983 31.3295 45.8983C31.8553 45.8983 32.3816 45.8743 32.8953 45.8274C32.9229 45.8238 32.9504 45.8336 32.971 45.8514C32.9917 45.8692 33.0034 45.8946 33.0034 45.9211V48.1026C33.0034 48.1546 32.9592 48.1968 32.9047 48.1968ZM30.6345 48.0085H32.8059V46.0243C32.3204 46.0657 31.8249 46.0866 31.3313 46.0866C31.0849 46.0866 30.8563 46.0825 30.6345 46.0739V48.0085Z" fill="#0D2043"/>
<path d="M40.8546 51H22.5856C22.5311 51 22.4868 50.9578 22.4868 50.9058V49.4831C22.4868 48.6702 23.1803 48.0089 24.0326 48.0089H39.4075C40.2599 48.0089 40.9533 48.6702 40.9533 49.4831V50.9058C40.9533 50.9578 40.9091 51 40.8546 51ZM22.6843 50.8116H40.7558V49.4831C40.7558 48.7741 40.151 48.1972 39.4076 48.1972H24.0327C23.2892 48.1972 22.6843 48.7741 22.6843 49.4831V50.8116Z" fill="#0D2043"/>
</svg>
