<?xml version="1.0" standalone="no"?>
<!DOCTYPE svg PUBLIC "-//W3C//DTD SVG 20010904//EN"
 "http://www.w3.org/TR/2001/REC-SVG-20010904/DTD/svg10.dtd">
<svg version="1.0" xmlns="http://www.w3.org/2000/svg"
 width="128.000000pt" height="128.000000pt" viewBox="0 0 128.000000 128.000000"
 preserveAspectRatio="xMidYMid meet">
<metadata>
Created by potrace 1.14, written by Peter Selinger 2001-2017
</metadata>
<g transform="translate(0.000000,128.000000) scale(0.100000,-0.100000)"
fill="#000000" stroke="none">
<path d="M550 1129 c-104 -26 -186 -69 -247 -127 -28 -28 -59 -52 -70 -54 -10
-2 -18 -8 -18 -15 0 -6 -12 -29 -26 -51 -18 -26 -23 -44 -17 -50 6 -6 6 -16 0
-29 -15 -27 -34 -122 -35 -168 0 -46 24 -147 54 -222 25 -63 133 -176 206
-215 56 -31 223 -78 257 -73 161 26 252 66 339 149 26 25 54 46 62 46 8 0 15
5 15 10 0 6 12 29 26 51 14 22 23 46 21 52 -2 7 2 32 9 57 7 25 15 57 16 72 2
15 7 30 11 34 9 9 9 69 0 78 -4 4 -9 19 -10 34 -4 32 -40 147 -56 181 -19 40
-134 149 -190 181 -64 37 -128 56 -242 74 -16 2 -64 -4 -105 -15z m62 -61 c2
-7 4 -33 3 -58 l0 -45 -127 0 c-81 0 -127 4 -125 10 6 18 111 74 167 89 69 19
77 19 82 4z m193 -20 c51 -20 125 -65 125 -77 0 -4 -57 -6 -127 -6 l-128 0 -1
50 c0 28 1 53 3 56 5 11 74 -2 128 -23z m-383 -135 c2 -16 8 -27 13 -26 6 1
12 -9 13 -23 2 -22 -2 -24 -41 -24 -28 0 -37 3 -28 9 8 5 22 8 32 6 10 -2 21
0 24 4 2 5 -9 7 -25 6 -21 -2 -30 2 -30 12 0 9 6 13 15 9 11 -4 15 2 15 22 -1
26 -1 26 -15 8 -12 -16 -15 -17 -15 -4 0 15 12 25 32 27 4 1 8 -11 10 -26z
m227 0 c-1 -17 -3 -21 -6 -10 -2 9 -12 17 -21 18 -14 0 -13 2 3 9 11 5 21 9
23 9 1 1 1 -11 1 -26z m246 13 c9 4 13 -5 13 -30 0 -19 3 -39 7 -45 3 -6 0
-11 -8 -11 -16 0 -30 24 -19 34 13 14 10 37 -4 32 -10 -4 -14 2 -13 17 0 12 3
17 5 10 3 -7 11 -10 19 -7z m-450 -5 c3 -5 1 -12 -5 -16 -5 -3 -10 1 -10 9 0
18 6 21 15 7z m233 -25 c0 -19 2 -39 5 -43 3 -5 -12 -10 -34 -11 -36 -3 -39
-1 -39 23 0 21 4 26 23 23 15 -2 25 4 32 20 5 12 10 22 11 22 1 0 2 -15 2 -34z
m205 -10 c9 5 9 4 0 -6 -6 -7 -9 -19 -6 -26 3 -9 -2 -14 -16 -14 -16 0 -21 6
-21 26 0 14 4 23 10 19 6 -3 10 -1 10 4 0 6 -4 11 -10 11 -5 0 -6 8 -3 17 5
14 8 12 16 -10 5 -16 13 -25 20 -21z m81 6 c3 -5 -1 -9 -9 -9 -8 0 -12 4 -9 9
3 4 7 8 9 8 2 0 6 -4 9 -8z m99 -110 c24 -60 23 -85 -4 -77 -11 4 -42 10 -67
14 l-47 6 -1 48 c-1 26 -1 47 0 47 0 1 19 3 41 6 22 4 42 8 44 10 7 7 17 -8
34 -54z m-245 -107 c-3 -142 -5 -154 -28 -189 -62 -93 -202 -104 -272 -22 -40
46 -48 84 -48 225 l0 137 176 1 176 0 -4 -152z m-522 48 c-1 -1 -21 -6 -44
-11 -45 -11 -45 -10 -36 37 l6 31 38 -28 c21 -15 37 -28 36 -29z m120 -28 c1
-8 -4 -12 -14 -8 -15 4 -15 3 -2 -6 22 -16 30 -13 30 11 0 12 3 18 7 14 10
-10 11 -46 1 -52 -4 -3 -8 -11 -8 -17 0 -7 4 -6 10 3 8 13 10 12 10 -2 0 -14
-9 -18 -42 -18 -24 0 -38 4 -33 8 6 4 10 24 10 44 -1 20 3 34 7 32 4 -3 8 0 8
7 0 16 13 3 16 -16z m468 -7 c-3 -4 3 -5 13 -1 10 3 15 3 11 -1 -3 -4 -2 -21
2 -37 9 -30 9 -30 -28 -27 -30 2 -38 7 -40 26 -3 18 1 23 13 20 9 -1 15 -7 13
-13 -2 -5 -7 -9 -13 -7 -5 2 -7 0 -2 -4 4 -4 18 -9 30 -10 12 -2 17 0 10 2 -7
3 -9 12 -6 20 3 8 0 14 -6 14 -6 0 -11 12 -11 28 0 20 3 23 9 12 6 -8 7 -18 5
-22z m-27 7 c0 -8 -4 -12 -9 -9 -5 3 -6 10 -3 15 9 13 12 11 12 -6z m-507 -64
c0 -27 -2 -28 -42 -24 -59 6 -112 23 -101 33 9 10 124 28 136 23 4 -2 7 -17 7
-32z m680 24 c61 -9 70 -21 24 -34 -73 -18 -108 -18 -112 2 -6 29 6 49 25 43
10 -3 38 -8 63 -11z m-704 -111 c21 -4 50 -72 36 -85 -4 -4 -32 -10 -63 -13
l-57 -7 -16 47 c-26 78 -24 83 32 72 26 -6 56 -12 68 -14z m749 -18 c-8 -38
-12 -38 -64 3 l-25 19 45 9 c24 5 45 9 47 7 2 -1 0 -18 -3 -38z m-615 -57 c0
7 5 9 11 5 8 -5 8 -9 -1 -14 -14 -9 -5 -30 13 -30 8 0 8 3 -1 9 -11 7 -11 9 0
13 7 3 22 -4 33 -15 16 -16 17 -19 3 -14 -11 4 -15 2 -12 -7 3 -7 -7 -21 -22
-31 -14 -9 -24 -13 -20 -7 3 5 -1 15 -10 23 -8 7 -20 22 -25 33 -9 20 -9 20 4
3 9 -10 18 -14 21 -9 3 5 -1 15 -9 22 -8 7 -15 17 -15 22 0 6 7 5 15 -2 11 -9
15 -9 15 -1z m395 3 c-3 -3 0 -11 7 -19 9 -11 5 -20 -16 -42 -14 -15 -23 -31
-19 -36 5 -5 -6 2 -24 16 -40 30 -40 39 -3 65 26 18 70 30 55 16z m-435 -87
c13 -15 11 -15 -85 -4 -11 1 -2 5 20 9 22 4 43 8 46 9 4 0 12 -6 19 -14z m465
-5 c3 -5 1 -10 -4 -10 -6 0 -11 5 -11 10 0 6 2 10 4 10 3 0 8 -4 11 -10z
m-436 -65 c41 -3 91 -10 110 -16 20 -7 41 -13 47 -15 10 -2 13 -79 3 -89 -9
-9 -120 23 -173 50 -30 15 -67 41 -83 57 l-28 30 25 -6 c14 -3 58 -8 99 -11z
m485 -16 c-31 -33 -136 -87 -184 -94 -19 -3 -43 -8 -52 -11 -10 -3 -18 -2 -19
3 -6 46 -5 74 5 82 20 17 90 33 166 38 41 2 76 6 77 7 2 2 10 3 18 3 11 0 8
-8 -11 -28z"/>
<path d="M620 858 c0 -4 9 -7 20 -5 29 5 33 13 5 13 -14 0 -25 -4 -25 -8z"/>
<path d="M850 860 c0 -5 5 -10 11 -10 5 0 7 5 4 10 -3 6 -8 10 -11 10 -2 0 -4
-4 -4 -10z"/>
<path d="M609 798 c-1 -2 -3 -16 -4 -33 -3 -42 12 -65 40 -65 28 0 43 23 40
65 -3 41 -5 43 -15 20 -7 -17 -9 -17 -9 -2 -1 11 -9 17 -26 17 -14 0 -26 -1
-26 -2z"/>
<path d="M502 630 c6 -81 70 -82 76 -1 3 40 2 41 -28 41 -22 0 -29 -4 -24 -12
5 -8 1 -8 -10 1 -16 14 -17 11 -14 -29z"/>
<path d="M608 664 c-6 -11 -3 -56 5 -78 7 -18 52 -22 63 -5 3 6 7 28 9 50 2
37 1 39 -26 39 -16 0 -29 -5 -29 -12 0 -10 -3 -9 -9 1 -5 7 -11 9 -13 5z"/>
<path d="M710 632 c0 -41 14 -62 42 -62 22 0 38 29 38 69 0 29 -2 31 -40 31
-40 0 -40 0 -40 -38z"/>
<path d="M606 532 c-5 -9 0 -54 9 -79 7 -19 53 -16 63 5 5 9 9 31 8 47 -2 27
-6 30 -38 33 -20 2 -39 -1 -42 -6z"/>
<path d="M397 659 c7 -9 10 -19 6 -22 -3 -4 -1 -7 5 -7 17 0 15 16 -5 31 -16
12 -17 12 -6 -2z"/>
<path d="M476 403 c-6 -14 -5 -15 5 -6 7 7 10 15 7 18 -3 3 -9 -2 -12 -12z"/>
<path d="M822 458 c-14 -14 -16 -28 -3 -28 5 0 11 9 14 20 6 23 5 24 -11 8z"/>
<path d="M833 430 c-11 -16 -10 -18 1 -14 15 6 30 34 18 34 -4 0 -13 -9 -19
-20z"/>
<path d="M780 426 c0 -2 7 -9 15 -16 9 -7 15 -8 15 -2 0 5 -7 12 -15 16 -8 3
-15 4 -15 2z"/>
</g>
</svg>
