<svg xmlns="http://www.w3.org/2000/svg" data-name="lineal - color" viewBox="0 0 128 128"><path fill="#e8f1f8" d="M75 42.0816s5-1 5 4-5 5-5 5zM39 42s-5-1-5 4 5 5 5 5z"/><path fill="#7badd7" d="M89,100.996A31.9537,31.9537,0,0,0,57.2415,69Q57.12,69,57,69q-.1607,0-.324.001A31.9586,31.9586,0,0,0,25,100.9967V105a4,4,0,0,0,4,4H85a4,4,0,0,0,4-4Z"/><path fill="#0677ba" d="M89,101v4a3.9989,3.9989,0,0,1-4,4H75.74C75.74,78.9565,49,85.0227,49,73.5718,49,71.819,54.4,69.1,54.4,69.1c.76-.06,1.51-.09,2.28-.1h.56A31.9534,31.9534,0,0,1,89,101Z"/><path fill="#0677ba" d="M89,101v.8A19,19,0,0,1,67.25,70.65,32.0379,32.0379,0,0,1,89,101Z"/><path fill="#cadeef" d="M49,62H65a0,0,0,0,1,0,0V72a8,8,0,0,1-8,8h0a8,8,0,0,1-8-8V62A0,0,0,0,1,49,62Z"/><path fill="#7badd7" d="M65,62v9.7073a8.3283,8.3283,0,0,1-3.0736,6.5843A7.9752,7.9752,0,0,1,54.78,79.69c5.1375-.4312,6.6734-4.4992,7.1029-7.49a2.2815,2.2815,0,0,0-2.547-2.5739A15.8561,15.8561,0,0,1,49,67.27V62Z"/><path fill="#e8f1f8" d="M39,33H75a0,0,0,0,1,0,0V49A18,18,0,0,1,57,67h0A18,18,0,0,1,39,49V33a0,0,0,0,1,0,0Z"/><path fill="#cadeef" d="M62.27,33H39v7.66a32.1383,32.1383,0,0,0,19.0015-3.4925c1.9139-1.0617,7.3384-3.3866,8.7484.3334,1.04,2.76,3.92,21.2691-3.92,28.5291A18,18,0,0,0,75,49V33Z"/><path fill="#0054aa" d="M99.5355,90.6066h6a0,0,0,0,1,0,0v21a3,3,0,0,1-3,3h0a3,3,0,0,1-3-3v-21A0,0,0,0,1,99.5355,90.6066Z" transform="rotate(-45 102.535 102.607)"/><path fill="#0054aa" d="M90.1109,90.682h10a0,0,0,0,1,0,0v5a4,4,0,0,1-4,4h-2a4,4,0,0,1-4-4v-5A0,0,0,0,1,90.1109,90.682Z" transform="rotate(-45 95.11 95.182)"/><path fill="#033e93" d="M107.8,109.53,97.31,99.31l-.53-.51,1.24-1.35c-1.7181,1.7109-3.1487.5241-4.0693-.83a15.8537,15.8537,0,0,0,4.6693-5l-3.16-3.16-7.07,7.08,3.54,3.53a3.9879,3.9879,0,0,0,3.86,1.03l10.99,10.99a3,3,0,0,0,4.24,0,2.9271,2.9271,0,0,0,.75-1.29A4.3423,4.3423,0,0,1,107.8,109.53Z"/><circle cx="80.615" cy="80.686" r="19" fill="#e8f1f8"/><path fill="#cadeef" d="M94.7581,82.3534s-6.332-8.1428-14.1429-8.1428-14.1428,8.1428-14.1428,8.1428,6.3319,8.1429,14.1428,8.1429S94.7581,82.3534,94.7581,82.3534Z"/><path fill="#cadeef" d="M99.62,80.69A19,19,0,0,1,65.8,92.58c21.18-2.89,27.87-17.25,29.8-23.56A18.8669,18.8669,0,0,1,99.62,80.69Z"/><path fill="#0054aa" d="M94.7581,80.6863s-6.332-8.1429-14.1429-8.1429-14.1428,8.1429-14.1428,8.1429,6.3319,8.1428,14.1428,8.1428S94.7581,80.6863,94.7581,80.6863Z"/><circle cx="80.615" cy="80.686" r="4" fill="#cadeef"/><circle cx="83.615" cy="77.686" r="2" fill="#e8f1f8"/><path fill="#0054aa" d="M78.07,42.43a5.3688,5.3688,0,0,0-2.91-.38c0,.01-.01,0-.01,0L75,46c-2.18,0-5.15-8.44-5-10,.24-2.54,1-4-10-2-2.27.45-15.69,4.77-22,4-7.57-.92-8-7-8-7a12.3963,12.3963,0,0,0,4.89-.36,13.1324,13.1324,0,0,0,7.77-6.41A17.448,17.448,0,0,1,57,16c14,0,20,8,21,14A48.7263,48.7263,0,0,1,78.07,42.43Z"/><path fill="#033e93" d="M78.07,42.43a5.3688,5.3688,0,0,0-2.91-.38h-.01L75,46c-2.18,0-5.15-8.44-5-10,.24-2.54,1-4-10-2-.76.15-2.75.73-5.3,1.4.26-.18,8.83-6.27,14.39-6.15,3.32.07,5.35-2.99,5.76-6.03A14.7824,14.7824,0,0,1,78,30,48.7263,48.7263,0,0,1,78.07,42.43Z"/><path fill="#0054aa" d="M80.6152,63.6863a17,17,0,1,1-17,17,17.0193,17.0193,0,0,1,17-17Zm0-2a19,19,0,1,0,19,19,19,19,0,0,0-19-19Z"/><path fill="#e8f1f8" d="M110.5544,38.5019s-2.02-.4039-2.02,1.6157a1.978,1.978,0,0,0,2.02,2.02"/><path fill="#002849" d="M75 52.0815a1 1 0 010-2 3.85 3.85 0 004-4 3.0266 3.0266 0 00-.9014-2.4624 4.0523 4.0523 0 00-2.9023-.5571 1 1 0 11-.3926-1.9609 6.02 6.02 0 014.563.9712A4.9031 4.9031 0 0181 46.0815 5.785 5.785 0 0175 52.0815zM39 52a5.785 5.785 0 01-6-6 4.9034 4.9034 0 011.6333-4.0093 6.0212 6.0212 0 014.563-.9712 1 1 0 01-.3887 1.9619h0a4.035 4.035 0 00-2.9126.5616A3.0327 3.0327 0 0035 46c0 3.9546 3.8369 4 4 4a1 1 0 010 2zM89.79 97.32a16.8367 16.8367 0 01-1.91.93c.08.9.12 1.82.12 2.75v4a3.0088 3.0088 0 01-3 3H29a3.0088 3.0088 0 01-3-3v-4A31.0864 31.0864 0 0148 71.31c.33-.1.66-.19 1-.28V68.97c-.34.08-.67.17-1 .27A33.07 33.07 0 0024 101v4a5.0018 5.0018 0 005 5H85a5.0018 5.0018 0 005-5v-4A32.0359 32.0359 0 0089.79 97.32zM65 68.96v.9c.18-.26.36-.51.55-.75C65.37 69.05 65.19 69.01 65 68.96z"/><path fill="#002849" d="M64,65.58v5.89a18.8445,18.8445,0,0,1,1-1.61c.18-.26.36-.51.55-.75a3.7447,3.7447,0,0,1,.45.12V64.58A14.9281,14.9281,0,0,1,64,65.58ZM50,72V65.58a14.9281,14.9281,0,0,1-2-1V72a9.0136,9.0136,0,0,0,9,9,8.8259,8.8259,0,0,0,4.64-1.3,19.8378,19.8378,0,0,1,.35-2.8A6.9937,6.9937,0,0,1,50,72Z"/><path fill="#002849" d="M74 45.5V49a17 17 0 01-34 0V38.0674a5.5084 5.5084 0 01-1.1646.1212A5.6326 5.6326 0 0138 38.1217V49a19 19 0 0038 0V45A4.9825 4.9825 0 0074 45.5zM111.73 106.14L100.16 94.57a3.9572 3.9572 0 01-.55 2.29l10.7 10.7a1.9917 1.9917 0 010 2.82 2.0289 2.0289 0 01-2.82 0l-10.7-10.7a3.9572 3.9572 0 01-2.29.55l11.57 11.57a4.0022 4.0022 0 105.66-5.66z"/><path fill="#002849" d="M99.71 91.29l-2.28-2.27c-.28.46-.66 1.04-1.13 1.7l1.99 1.99a2.9936 2.9936 0 010 4.24l-1.41 1.41a3 3 0 01-4.24 0l-2.03-2.03a13.5312 13.5312 0 01-1.83 1.01l2.44 2.44a5.01 5.01 0 007.07 0l1.42-1.42A5.0035 5.0035 0 0099.71 91.29zM80.6152 89.8291c-8.206 0-14.6616-8.1807-14.9326-8.5288a1 1 0 010-1.2275c.271-.3482 6.7266-8.5293 14.9326-8.5293s14.6617 8.1811 14.9327 8.5293a1 1 0 010 1.2275C95.2769 81.6484 88.8213 89.8291 80.6152 89.8291zm-12.834-9.1426c1.6216 1.835 6.8316 7.1426 12.834 7.1426s11.2124-5.3076 12.834-7.1426c-1.6216-1.8349-6.8315-7.143-12.834-7.143S69.4028 78.8516 67.7812 80.6865z"/><path fill="#002849" d="M80.6152,100.6865a20,20,0,1,1,20-20A20.0229,20.0229,0,0,1,80.6152,100.6865Zm0-38a18,18,0,1,0,18,18A18.02,18.02,0,0,0,80.6152,62.6865Z"/><path fill="#002849" d="M85.26,78.83a1.99,1.99,0,0,1-1.64.86,1.0869,1.0869,0,0,1-.18-.01,2.787,2.787,0,0,1,.18,1.01,3,3,0,1,1-3-3,3.1031,3.1031,0,0,1,1.01.17.915.915,0,0,1-.01-.17,1.9815,1.9815,0,0,1,.85-1.64,4.9175,4.9175,0,0,0-1.85-.36,5.0036,5.0036,0,1,0,4.64,3.14Z"/><path fill="#002849" d="M83.6152 80.6865a3 3 0 113-3A3.0033 3.0033 0 0183.6152 80.6865zm0-4a1 1 0 101 1A1.0014 1.0014 0 0083.6152 76.6865zM75 47a2.7687 2.7687 0 01-1.9912-1.08c-2.021-2.2246-4.165-8.3393-4.0044-10.0156l.042-.4053c.0454-.4223.1142-1.061-.001-1.1684-.394-.3662-2.25-.55-8.8667.6533-.4194.0835-1.3813.3462-2.5986.6787-5.0694 1.3857-14.5054 3.9609-19.7012 3.33-8.292-1.0078-8.8716-7.8531-8.8765-7.9219a1 1 0 01.3091-.7959.9892.9892 0 01.8106-.2676 11.4761 11.4761 0 004.5-.3305 12.0768 12.0768 0 007.167-5.9371A18.3675 18.3675 0 0157 15c15.4038 0 21.0679 9.3252 21.9863 14.8354a49.2153 49.2153 0 01.0767 12.7115 1 1 0 01-1.4312.7822 3.73 3.73 0 00-1.5171-.3311L76 46.0381A1 1 0 0175 47zM67.4482 32.0645c1.65 0 2.43.309 2.959.8017a3.1062 3.1062 0 01.6275 2.8472l-.0391.3808c-.1069 1.16 1.6768 5.9776 3.0757 8.0074l.0791-2.09a1 1 0 01.9233-.959 6.9955 6.9955 0 012.1284.0533 46.0152 46.0152 0 00-.1884-10.9414C76.1987 25.2749 71.0664 17 57 17a16.4881 16.4881 0 00-13.4678 7.72 14.0558 14.0558 0 01-8.3755 6.8843 13.46 13.46 0 01-3.8945.4888c.5371 1.6006 2.14 4.3413 6.8584 4.9145 4.813.5869 14.3482-2.02 18.9321-3.2739 1.3052-.3564 2.2476-.6143 2.753-.7144A46.8061 46.8061 0 0167.4482 32.0645z"/></svg>