<svg width="2145" height="1201" viewBox="0 0 2145 1201" fill="none" xmlns="http://www.w3.org/2000/svg">
<g opacity="0.1">
<mask id="mask0_1_1953" style="mask-type:alpha" maskUnits="userSpaceOnUse" x="1792" y="0" width="353" height="731">
<path d="M1792.67 0.665061H2112.95C2130.21 0.665061 2144.21 14.6597 2144.21 31.9229V730.036H1858.51C1822.14 730.036 1792.67 700.558 1792.67 664.195V0.665061Z" fill="url(#paint0_linear_1_1953)" stroke="#6246E5" stroke-width="1.33012"/>
</mask>
<g mask="url(#mask0_1_1953)">
<path d="M2234.19 370.667C2234.19 423.542 2220.41 471.381 2198.16 505.98C2175.91 540.586 2145.24 561.872 2111.48 561.872C2077.71 561.872 2047.05 540.586 2024.8 505.98C2002.55 471.381 1988.77 423.542 1988.77 370.667C1988.77 317.792 2002.55 269.954 2024.8 235.355C2047.05 200.749 2077.71 179.463 2111.48 179.463C2145.24 179.463 2175.91 200.749 2198.16 235.355C2220.41 269.954 2234.19 317.792 2234.19 370.667Z" stroke="#6246E5" stroke-width="1.33012"/>
<path d="M2239.06 350.469C2239.06 409.619 2223.64 463.137 2198.75 501.848C2173.85 540.566 2139.54 564.395 2101.74 564.395C2063.94 564.395 2029.62 540.566 2004.73 501.848C1979.83 463.137 1964.42 409.619 1964.42 350.469C1964.42 291.32 1979.83 237.802 2004.73 199.091C2029.62 160.373 2063.94 136.544 2101.74 136.544C2139.54 136.544 2173.85 160.373 2198.75 199.091C2223.64 237.802 2239.06 291.32 2239.06 350.469Z" stroke="#6246E5" stroke-width="1.33012"/>
<path d="M2243.93 334.062C2243.93 398.788 2227.06 457.356 2199.81 499.722C2172.57 542.095 2135.01 568.184 2093.62 568.184C2052.23 568.184 2014.67 542.095 1987.43 499.722C1960.18 457.356 1943.31 398.788 1943.31 334.062C1943.31 269.335 1960.18 210.767 1987.43 168.402C2014.67 126.029 2052.23 99.9395 2093.62 99.9395C2135.01 99.9395 2172.57 126.029 2199.81 168.402C2227.06 210.767 2243.93 269.335 2243.93 334.062Z" stroke="#6246E5" stroke-width="1.33012"/>
<path d="M2247.17 310.076C2247.17 379.682 2229.03 442.668 2199.73 488.232C2170.43 533.803 2130.03 561.87 2085.5 561.87C2040.98 561.87 2000.58 533.803 1971.27 488.232C1941.97 442.668 1923.83 379.682 1923.83 310.076C1923.83 240.469 1941.97 177.483 1971.27 131.92C2000.58 86.3487 2040.98 58.2813 2085.5 58.2813C2130.03 58.2813 2170.43 86.3487 2199.73 131.92C2229.03 177.483 2247.17 240.469 2247.17 310.076Z" stroke="#6246E5" stroke-width="1.33012"/>
<path d="M2250.42 286.723C2250.42 361.035 2231.05 428.282 2199.77 476.929C2168.48 525.584 2125.34 555.559 2077.79 555.559C2030.24 555.559 1987.1 525.584 1955.81 476.929C1924.53 428.282 1905.16 361.035 1905.16 286.723C1905.16 212.411 1924.53 145.165 1955.81 96.5172C1987.1 47.8626 2030.24 17.8877 2077.79 17.8877C2125.34 17.8877 2168.48 47.8626 2199.77 96.5172C2231.05 145.165 2250.42 212.411 2250.42 286.723Z" stroke="#6246E5" stroke-width="1.33012"/>
<path d="M2254.48 260.216C2254.48 341.848 2233.2 415.721 2198.84 469.166C2164.47 522.618 2117.06 555.56 2064.81 555.56C2012.55 555.56 1965.14 522.618 1930.77 469.166C1896.41 415.721 1875.13 341.848 1875.13 260.216C1875.13 178.584 1896.41 104.71 1930.77 51.2657C1965.14 -2.18602 2012.55 -35.1279 2064.81 -35.1279C2117.06 -35.1279 2164.47 -2.18602 2198.84 51.2657C2233.2 104.71 2254.48 178.584 2254.48 260.216Z" stroke="#6246E5" stroke-width="1.33012"/>
</g>
</g>
<g opacity="0.1">
<mask id="mask1_1_1953" style="mask-type:alpha" maskUnits="userSpaceOnUse" x="0" y="450" width="642" height="751">
<rect x="640.92" y="450.665" width="749.074" height="640.255" transform="rotate(90 640.92 450.665)" fill="url(#paint1_linear_1_1953)" stroke="#6246E5" stroke-width="1.33012"/>
</mask>
<g mask="url(#mask1_1_1953)">
<path d="M316.122 1393.93C269.904 1393.93 227.969 1364.76 197.556 1317.39C167.148 1270.04 148.318 1204.57 148.318 1132.23C148.318 1059.89 167.148 994.426 197.556 947.069C227.969 899.705 269.904 870.529 316.122 870.529C362.34 870.529 404.274 899.705 434.687 947.069C465.096 994.426 483.925 1059.89 483.925 1132.23C483.925 1204.57 465.096 1270.04 434.687 1317.39C404.274 1364.76 362.34 1393.93 316.122 1393.93Z" stroke="#6246E5" stroke-width="1.33012"/>
<path d="M333.855 1404.29C282.128 1404.29 235.206 1371.64 201.182 1318.65C167.164 1265.67 146.101 1192.44 146.101 1111.52C146.101 1030.6 167.164 957.366 201.182 904.387C235.206 851.401 282.128 818.747 333.855 818.747C385.582 818.747 432.505 851.401 466.528 904.387C500.546 957.366 521.609 1030.6 521.609 1111.52C521.609 1192.44 500.546 1265.67 466.528 1318.65C432.505 1371.64 385.582 1404.29 333.855 1404.29Z" stroke="#6246E5" stroke-width="1.33012"/>
<path d="M348.263 1414.65C291.639 1414.65 240.284 1378.9 203.051 1320.92C165.824 1262.94 142.776 1182.81 142.776 1094.26C142.776 1005.71 165.824 925.574 203.051 867.597C240.284 809.613 291.639 773.868 348.263 773.868C404.888 773.868 456.243 809.613 493.476 867.597C530.703 925.574 553.751 1005.71 553.751 1094.26C553.751 1182.81 530.703 1262.94 493.476 1320.92C456.243 1378.9 404.888 1414.65 348.263 1414.65Z" stroke="#6246E5" stroke-width="1.33012"/>
<path d="M369.323 1421.55C308.414 1421.55 253.179 1383.1 213.138 1320.74C173.103 1258.39 148.318 1172.22 148.318 1077C148.318 981.775 173.103 895.599 213.138 833.249C253.179 770.892 308.414 732.442 369.323 732.442C430.232 732.442 485.467 770.892 525.507 833.249C565.543 895.599 590.327 981.775 590.327 1077C590.327 1172.22 565.543 1258.39 525.507 1320.74C485.467 1383.1 430.232 1421.55 369.323 1421.55Z" stroke="#6246E5" stroke-width="1.33012"/>
<path d="M389.827 1428.46C324.786 1428.46 265.81 1387.4 223.062 1320.82C180.319 1254.26 153.86 1162.26 153.86 1060.6C153.86 958.942 180.319 866.941 223.062 800.374C265.81 733.8 324.786 692.742 389.827 692.742C454.868 692.742 513.843 733.8 556.591 800.374C599.335 866.941 625.794 958.942 625.794 1060.6C625.794 1162.26 599.335 1254.26 556.591 1320.82C513.843 1387.4 454.868 1428.46 389.827 1428.46Z" stroke="#6246E5" stroke-width="1.33012"/>
<path d="M413.102 1437.09C341.634 1437.08 276.839 1391.97 229.879 1318.84C182.924 1245.71 153.86 1144.65 153.86 1032.98C153.86 921.315 182.924 820.251 229.879 747.125C276.84 673.991 341.634 628.876 413.102 628.876C484.57 628.876 549.365 673.991 596.325 747.125C643.28 820.251 672.344 921.315 672.344 1032.98C672.344 1144.65 643.28 1245.71 596.325 1318.84C549.365 1391.97 484.57 1437.09 413.102 1437.09Z" stroke="#6246E5" stroke-width="1.33012"/>
</g>
</g>
<ellipse cx="1918.79" cy="182.554" rx="43.7914" ry="46.5543" fill="url(#paint2_linear_1_1953)"/>
<path d="M1940.83 167.91C1941.69 169.503 1941.57 171.4 1940.52 172.859L1917.41 204.925C1916.45 206.247 1914.88 206.921 1913.28 206.594C1911.71 206.272 1910.46 205.054 1910.03 203.416L1906.61 190.476L1906.25 189.13L1905.33 188.129L1896.5 178.51C1895.38 177.293 1895.02 175.537 1895.54 173.929C1896.06 172.34 1897.36 171.187 1898.96 170.963L1936.64 165.716C1938.36 165.476 1939.96 166.318 1940.83 167.91Z" fill="white"/>
<path d="M1906.61 190.476L1910.03 203.416C1910.46 205.054 1911.71 206.272 1913.28 206.593C1914.88 206.921 1916.45 206.247 1917.41 204.924L1940.52 172.859C1941.57 171.399 1941.69 169.503 1940.83 167.91L1906.25 189.13L1906.61 190.476Z" fill="white"/>
<path d="M1920.32 180.494C1920.67 181.142 1920.47 181.97 1919.86 182.345L1906.61 190.475L1906.25 189.129L1905.33 188.128L1918.58 179.998C1919.19 179.624 1919.97 179.846 1920.32 180.494Z" fill="url(#paint3_linear_1_1953)"/>
<path d="M1906.61 190.476L1919.86 182.346C1920.47 181.972 1920.67 181.143 1920.32 180.495L1906.25 189.13L1906.61 190.476Z" fill="url(#paint4_linear_1_1953)"/>
<defs>
<linearGradient id="paint0_linear_1_1953" x1="2042.27" y1="20.5006" x2="1593.01" y2="567.172" gradientUnits="userSpaceOnUse">
<stop stop-color="#1E1D4C"/>
<stop offset="1" stop-color="#47C0C0"/>
</linearGradient>
<linearGradient id="paint1_linear_1_1953" x1="1173.8" y1="468" x2="929.105" y2="1189.15" gradientUnits="userSpaceOnUse">
<stop stop-color="#747DEF"/>
<stop offset="1" stop-color="#5E3BE1"/>
</linearGradient>
<linearGradient id="paint2_linear_1_1953" x1="1937.12" y1="138.612" x2="1895.32" y2="237.681" gradientUnits="userSpaceOnUse">
<stop stop-color="#60A5FA"/>
<stop offset="1" stop-color="#212832"/>
</linearGradient>
<linearGradient id="paint3_linear_1_1953" x1="1915.55" y1="181.947" x2="1917.12" y2="184.904" gradientUnits="userSpaceOnUse">
<stop stop-color="#60A5FA"/>
<stop offset="1" stop-color="#212832"/>
</linearGradient>
<linearGradient id="paint4_linear_1_1953" x1="1916.17" y1="183.089" x2="1917" y2="184.542" gradientUnits="userSpaceOnUse">
<stop stop-color="#60A5FA"/>
<stop offset="1" stop-color="#212832"/>
</linearGradient>
</defs>
</svg>
