<?xml version="1.0" standalone="no"?>
<!DOCTYPE svg PUBLIC "-//W3C//DTD SVG 20010904//EN"
 "http://www.w3.org/TR/2001/REC-SVG-20010904/DTD/svg10.dtd">
<svg version="1.0" xmlns="http://www.w3.org/2000/svg"
 width="300.000000pt" height="300.000000pt" viewBox="0 0 300.000000 300.000000"
 preserveAspectRatio="xMidYMid meet">
<metadata>
Created by potrace 1.14, written by Peter Selinger 2001-2017
</metadata>
<g transform="translate(0.000000,300.000000) scale(0.100000,-0.100000)"
fill="#000000" stroke="none">
<path d="M0 1500 l0 -1500 1500 0 1500 0 0 1500 0 1500 -1500 0 -1500 0 0
-1500z m1465 1140 c8 -13 58 -13 72 1 13 13 33 4 33 -15 0 -9 22 -15 68 -19
156 -13 349 -83 495 -180 93 -62 215 -172 262 -235 17 -23 42 -46 58 -53 15
-6 28 -15 28 -20 1 -5 2 -12 3 -16 0 -5 12 -26 26 -48 13 -22 25 -51 26 -65 1
-14 20 -77 43 -140 22 -63 44 -149 50 -190 5 -41 16 -79 24 -85 20 -15 17
-142 -4 -175 -9 -14 -20 -52 -24 -85 -4 -33 -20 -101 -36 -151 -28 -89 -29
-93 -12 -122 17 -29 17 -31 -5 -49 -28 -23 -102 -149 -102 -174 0 -15 -7 -19
-34 -19 -30 0 -46 -12 -124 -89 -138 -138 -289 -229 -482 -289 -82 -26 -93
-26 -330 -26 -239 0 -247 0 -335 27 -227 70 -398 188 -585 404 -19 22 -41 42
-48 44 -7 2 -14 11 -15 20 -2 8 -14 33 -27 54 -14 22 -26 49 -27 60 -1 11 -20
72 -42 135 -22 63 -44 148 -50 189 -5 41 -16 78 -23 82 -19 12 -20 157 -1 167
8 5 19 45 28 97 8 50 26 124 40 165 25 73 25 76 8 108 -17 31 -17 34 -1 43 22
12 108 155 108 179 0 16 7 20 34 20 30 0 46 12 124 90 181 181 438 307 669
327 58 5 72 9 76 24 6 21 22 25 32 9z"/>
<path d="M1570 2358 l0 -128 300 0 c250 0 300 -2 300 -14 0 -15 29 -30 38 -21
9 8 -53 58 -152 125 -123 83 -269 137 -423 158 l-63 9 0 -129z"/>
<path d="M1335 2475 c-5 -2 -43 -11 -84 -20 -105 -24 -218 -74 -313 -139 -95
-64 -154 -113 -146 -121 9 -9 38 6 38 21 0 12 50 14 300 14 l300 0 0 125 0
125 -42 -1 c-24 0 -47 -2 -53 -4z"/>
<path d="M946 2169 c6 -11 54 -12 54 -1 0 4 -13 8 -30 8 -16 1 -27 -2 -24 -7z"/>
<path d="M1478 2166 c3 -6 5 -25 3 -43 -2 -28 1 -33 19 -33 18 0 21 5 19 33
-2 18 0 37 3 43 4 6 -4 10 -22 10 -18 0 -26 -4 -22 -10z"/>
<path d="M2000 2168 c0 -11 48 -10 54 1 3 5 -8 8 -24 7 -17 0 -30 -4 -30 -8z"/>
<path d="M1460 2152 c0 -6 -11 -9 -26 -6 -19 3 -24 1 -18 -8 5 -7 7 -21 6 -30
-2 -12 3 -18 16 -18 15 0 21 9 25 33 2 17 3 34 1 36 -2 2 -4 -1 -4 -7z"/>
<path d="M1537 2142 c1 -8 3 -22 3 -33 0 -13 7 -19 21 -19 14 0 19 6 17 18 -1
9 1 23 6 30 6 9 1 12 -18 8 -13 -2 -27 -1 -29 2 -2 4 -2 1 0 -6z"/>
<path d="M895 2132 c3 -7 5 -20 5 -28 0 -8 7 -14 15 -14 8 0 15 6 15 14 0 8 2
21 5 28 4 10 -2 14 -20 14 -18 0 -24 -4 -20 -14z"/>
<path d="M950 2120 c0 -23 4 -30 20 -30 16 0 20 7 20 30 0 23 -4 30 -20 30
-16 0 -20 -7 -20 -30z"/>
<path d="M1008 2136 c3 -6 5 -19 4 -28 -2 -13 3 -18 18 -18 15 0 20 5 18 18
-1 9 1 22 4 28 4 6 -4 10 -22 10 -18 0 -26 -4 -22 -10z"/>
<path d="M1948 2135 c4 -5 5 -18 4 -27 -2 -13 3 -18 18 -18 15 0 20 5 18 18
-1 9 0 22 4 27 3 6 -6 10 -22 10 -17 1 -26 -3 -22 -10z"/>
<path d="M2010 2120 c0 -20 5 -30 15 -30 10 0 15 10 15 30 0 20 -5 30 -15 30
-10 0 -15 -10 -15 -30z"/>
<path d="M2059 2137 c6 -6 11 -19 11 -29 0 -29 27 -21 32 10 3 24 1 28 -25 29
-21 0 -26 -2 -18 -10z"/>
<path d="M895 2070 c-4 -6 23 -10 74 -10 47 0 81 4 81 10 0 6 -31 10 -74 10
-41 0 -78 -4 -81 -10z"/>
<path d="M1420 2070 c0 -6 33 -10 80 -10 47 0 80 4 80 10 0 6 -33 10 -80 10
-47 0 -80 -4 -80 -10z"/>
<path d="M1950 2070 c0 -6 32 -10 75 -10 43 0 75 4 75 10 0 6 -32 10 -75 10
-43 0 -75 -4 -75 -10z"/>
<path d="M2175 2070 c-12 -19 1 -22 57 -12 37 7 44 10 23 11 -16 1 -40 4 -51
7 -12 3 -25 1 -29 -6z"/>
<path d="M894 2020 c-1 -37 18 -40 34 -5 6 14 16 25 22 25 7 0 4 -7 -4 -16 -9
-8 -16 -22 -16 -30 0 -8 -10 -14 -24 -14 -14 0 -28 -4 -31 -10 -4 -6 30 -10
94 -10 61 0 101 4 101 10 0 6 -11 10 -25 10 -14 0 -25 5 -25 10 0 6 -9 19 -20
30 -11 11 -16 20 -10 20 5 0 17 -11 26 -25 23 -35 42 -32 36 5 l-4 30 -77 0
-76 0 -1 -30z m71 -20 c-3 -5 1 -10 10 -10 10 0 13 5 9 12 -4 7 -3 8 4 4 21
-13 12 -26 -18 -26 -22 0 -28 4 -24 15 4 8 10 15 16 15 5 0 6 -4 3 -10z"/>
<path d="M1420 2020 c0 -35 21 -40 35 -8 6 12 16 23 23 24 7 1 8 0 2 -3 -6 -3
-15 -16 -20 -29 -7 -17 -17 -24 -35 -24 -14 0 -25 -4 -25 -10 0 -6 40 -10 100
-10 60 0 100 4 100 10 0 6 -11 10 -25 10 -18 0 -28 7 -35 24 -5 13 -14 26 -20
29 -6 3 -5 4 2 3 7 -1 17 -12 23 -24 14 -32 35 -27 35 8 l0 30 -80 0 -80 0 0
-30z m65 -20 c-3 -5 3 -10 15 -10 13 0 19 4 14 12 -4 7 -3 8 4 4 22 -13 12
-26 -18 -26 -29 0 -38 9 -23 23 10 10 15 8 8 -3z"/>
<path d="M1948 2020 c-6 -38 9 -38 39 -2 l23 27 -17 -32 c-12 -22 -25 -33 -40
-33 -13 0 -23 -4 -23 -10 0 -6 38 -10 95 -10 57 0 95 4 95 10 0 6 -11 10 -24
10 -16 0 -25 7 -29 23 -5 20 -5 20 7 5 20 -27 33 -22 32 12 l-1 30 -76 0 -77
0 -4 -30z m67 -20 c-3 -5 1 -10 10 -10 10 0 13 5 9 12 -4 7 -3 8 4 4 20 -12
13 -26 -13 -26 -24 0 -32 10 -18 23 10 10 15 8 8 -3z"/>
<path d="M2355 1935 c-5 -2 -49 -9 -97 -15 l-88 -12 0 -104 0 -103 33 -5 c17
-3 66 -10 107 -17 41 -6 101 -17 133 -24 53 -12 57 -12 53 3 -2 9 -10 42 -16
72 -7 30 -26 90 -43 133 -30 77 -41 86 -82 72z"/>
<path d="M1100 1646 c0 -150 5 -298 10 -327 43 -229 265 -380 480 -325 153 39
253 142 295 303 12 44 15 122 15 340 l0 283 -400 0 -400 0 0 -274z m490 138
c0 -107 -23 -143 -92 -144 -28 0 -42 7 -62 31 -23 27 -26 39 -26 110 l0 79 90
0 90 0 0 -76z m-240 -299 c0 -78 -2 -88 -25 -110 -35 -36 -88 -34 -126 4 -27
28 -29 34 -29 110 l0 81 90 0 90 0 0 -85z m240 6 c0 -71 -3 -83 -26 -110 -20
-25 -34 -31 -64 -31 -30 0 -44 6 -64 31 -23 27 -26 39 -26 110 l0 79 90 0 90
0 0 -79z m240 -2 c0 -76 -2 -82 -29 -110 -38 -38 -91 -40 -126 -4 -23 22 -25
32 -25 110 l0 85 90 0 90 0 0 -81z m-240 -290 c0 -76 -2 -82 -29 -110 -20 -20
-39 -29 -61 -29 -22 0 -41 9 -61 29 -27 28 -29 34 -29 110 l0 81 90 0 90 0 0
-81z"/>
<path d="M1440 1815 c0 -8 7 -15 15 -15 8 0 15 7 15 15 0 8 -7 15 -15 15 -8 0
-15 -7 -15 -15z"/>
<path d="M1530 1814 c0 -9 5 -14 12 -12 18 6 21 28 4 28 -9 0 -16 -7 -16 -16z"/>
<path d="M1487 1774 c-13 -13 -7 -24 14 -24 11 0 19 5 17 12 -5 14 -22 21 -31
12z"/>
<path d="M1440 1705 c0 -8 7 -15 15 -15 8 0 15 7 15 15 0 8 -7 15 -15 15 -8 0
-15 -7 -15 -15z"/>
<path d="M1530 1705 c0 -8 7 -15 15 -15 8 0 15 7 15 15 0 8 -7 15 -15 15 -8 0
-15 -7 -15 -15z"/>
<path d="M1296 1543 c-12 -12 -6 -33 9 -33 8 0 15 6 15 14 0 17 -14 28 -24 19z"/>
<path d="M1202 1528 c5 -15 28 -18 29 -3 0 6 -7 12 -17 13 -10 3 -15 -1 -12
-10z"/>
<path d="M1250 1476 c0 -9 7 -16 16 -16 17 0 14 22 -4 28 -7 2 -12 -3 -12 -12z"/>
<path d="M1202 1418 c5 -15 28 -18 29 -3 0 6 -7 12 -17 13 -10 3 -15 -1 -12
-10z"/>
<path d="M1290 1415 c0 -8 7 -15 15 -15 8 0 15 7 15 15 0 8 -7 15 -15 15 -8 0
-15 -7 -15 -15z"/>
<path d="M1445 1540 c-7 -12 2 -30 16 -30 12 0 12 27 0 35 -5 3 -12 1 -16 -5z"/>
<path d="M1534 1536 c-8 -22 3 -33 18 -18 9 9 9 15 0 24 -9 9 -13 7 -18 -6z"/>
<path d="M1485 1479 c-10 -15 1 -23 20 -15 9 3 13 10 10 16 -8 13 -22 13 -30
-1z"/>
<path d="M1442 1418 c6 -18 28 -21 28 -4 0 9 -7 16 -16 16 -9 0 -14 -5 -12
-12z"/>
<path d="M1530 1415 c0 -8 7 -15 15 -15 8 0 15 7 15 15 0 8 -7 15 -15 15 -8 0
-15 -7 -15 -15z"/>
<path d="M1684 1536 c-8 -22 3 -33 18 -18 9 9 9 15 0 24 -9 9 -13 7 -18 -6z"/>
<path d="M1771 1536 c-9 -10 -9 -16 -1 -21 17 -10 37 12 24 25 -8 8 -15 6 -23
-4z"/>
<path d="M1727 1483 c-12 -11 -8 -23 8 -23 8 0 15 7 15 15 0 16 -12 20 -23 8z"/>
<path d="M1680 1415 c0 -8 7 -15 15 -15 8 0 15 7 15 15 0 8 -7 15 -15 15 -8 0
-15 -7 -15 -15z"/>
<path d="M1765 1421 c-3 -5 -1 -12 5 -16 12 -7 30 2 30 16 0 12 -27 12 -35 0z"/>
<path d="M1445 1250 c-4 -6 -3 -16 3 -22 6 -6 12 -6 17 2 4 6 3 16 -3 22 -6 6
-12 6 -17 -2z"/>
<path d="M1535 1250 c-4 -6 -3 -16 3 -22 6 -6 12 -6 17 2 4 6 3 16 -3 22 -6 6
-12 6 -17 -2z"/>
<path d="M1485 1191 c-7 -12 12 -24 25 -16 11 7 4 25 -10 25 -5 0 -11 -4 -15
-9z"/>
<path d="M1440 1125 c0 -8 7 -15 15 -15 8 0 15 7 15 15 0 8 -7 15 -15 15 -8 0
-15 -7 -15 -15z"/>
<path d="M1530 1124 c0 -17 22 -14 28 4 2 7 -3 12 -12 12 -9 0 -16 -7 -16 -16z"/>
<path d="M525 1748 c-9 -40 -19 -80 -21 -89 -4 -15 4 -15 83 2 49 10 98 19
111 19 12 0 22 3 22 8 -1 6 -152 123 -170 130 -4 2 -15 -30 -25 -70z"/>
<path d="M990 1692 c0 -6 -11 -9 -26 -6 -19 3 -24 1 -18 -8 5 -7 7 -27 5 -45
-2 -27 1 -33 17 -33 17 0 21 8 24 48 3 26 3 49 1 51 -2 2 -3 -1 -3 -7z"/>
<path d="M2021 1692 c-1 -7 -6 -10 -13 -6 -8 5 -9 2 -5 -10 4 -10 7 -31 7 -47
0 -19 5 -29 15 -29 10 0 15 10 15 33 0 18 6 39 13 46 10 11 9 13 -5 8 -9 -3
-19 -1 -22 6 -3 9 -5 8 -5 -1z"/>
<path d="M911 1662 c-1 -7 -5 -11 -9 -8 -5 3 -6 -8 -4 -25 4 -29 32 -42 32
-15 0 8 3 22 7 32 4 11 3 15 -4 11 -6 -4 -14 -1 -16 5 -4 10 -6 10 -6 0z"/>
<path d="M1944 1657 c3 -10 6 -27 6 -38 0 -13 7 -19 21 -19 14 0 19 6 17 18
-1 9 1 22 4 28 4 6 -1 10 -15 9 -12 -1 -26 3 -30 9 -6 7 -7 4 -3 -7z"/>
<path d="M1008 1628 c3 -20 10 -28 24 -28 13 0 18 6 16 18 -1 9 1 22 4 28 4 6
-4 10 -21 10 -24 0 -27 -3 -23 -28z"/>
<path d="M2065 1642 c3 -7 5 -20 5 -28 0 -26 28 -14 32 14 3 24 0 28 -19 28
-16 0 -22 -4 -18 -14z"/>
<path d="M895 1580 c-4 -6 23 -10 74 -10 47 0 81 4 81 10 0 6 -31 10 -74 10
-41 0 -78 -4 -81 -10z"/>
<path d="M1950 1580 c0 -6 34 -10 81 -10 51 0 78 4 74 10 -3 6 -40 10 -81 10
-43 0 -74 -4 -74 -10z"/>
<path d="M690 1550 c-122 -21 -189 -36 -197 -44 -25 -25 88 -58 285 -82 l53
-7 -3 74 c-2 57 -6 74 -18 76 -8 1 -62 -7 -120 -17z"/>
<path d="M2177 1564 c-4 -4 -7 -39 -7 -77 l0 -70 53 7 c186 23 308 58 284 82
-7 8 -109 30 -197 44 -41 6 -86 13 -100 16 -14 3 -29 2 -33 -2z"/>
<path d="M894 1530 c-1 -37 18 -40 34 -5 6 14 16 25 22 25 7 0 4 -7 -4 -16 -9
-8 -16 -22 -16 -30 0 -8 -10 -14 -24 -14 -14 0 -28 -4 -31 -10 -4 -6 30 -10
94 -10 61 0 101 4 101 10 0 6 -10 10 -22 10 -16 0 -29 11 -41 33 l-17 32 23
-27 c30 -36 45 -36 39 2 l-4 30 -77 0 -76 0 -1 -30z m104 -36 c-3 -3 -19 -4
-34 -2 -27 3 -27 4 -9 21 16 17 19 17 33 3 9 -9 13 -18 10 -22z"/>
<path d="M965 1510 c-3 -5 1 -10 10 -10 9 0 13 5 10 10 -3 6 -8 10 -10 10 -2
0 -7 -4 -10 -10z"/>
<path d="M1948 1530 c-6 -37 6 -38 38 -2 l24 27 -17 -32 c-12 -22 -25 -33 -40
-33 -13 0 -23 -4 -23 -10 0 -6 38 -10 95 -10 57 0 95 4 95 10 0 6 -11 10 -24
10 -16 0 -25 7 -29 23 -5 20 -5 20 7 5 20 -27 33 -22 32 12 l-1 30 -76 0 -77
0 -4 -30z m72 -15 c-10 -12 -10 -15 3 -15 8 0 18 6 20 13 3 7 6 5 6 -5 1 -13
-7 -18 -24 -18 -27 0 -32 9 -13 28 17 17 23 15 8 -3z"/>
<path d="M517 1274 c15 -66 58 -191 72 -206 11 -12 291 25 291 38 0 6 -7 28
-15 48 -8 19 -20 58 -26 84 l-10 49 -137 23 c-75 12 -149 24 -164 27 l-26 5
15 -68z"/>
<path d="M2385 1323 c-44 -9 -86 -17 -94 -19 -10 -3 148 -134 163 -134 2 0 11
33 21 73 9 39 18 78 21 85 4 14 -7 14 -111 -5z"/>
<path d="M1090 1162 c0 -6 -9 -14 -20 -17 -11 -4 -17 -11 -14 -17 4 -6 15 -2
27 11 12 11 18 24 14 27 -4 4 -7 2 -7 -4z"/>
<path d="M1900 1162 c0 -5 9 -17 19 -26 14 -13 21 -14 27 -5 4 7 3 10 -2 7
-11 -7 -35 17 -27 26 4 3 1 6 -5 6 -7 0 -12 -4 -12 -8z"/>
<path d="M1025 1141 c3 -5 -4 -12 -15 -16 -11 -4 -18 -11 -14 -16 4 -6 14 -3
25 7 21 19 25 34 8 34 -5 0 -8 -4 -4 -9z"/>
<path d="M1966 1141 c-3 -4 3 -16 13 -25 15 -14 21 -15 27 -4 4 7 4 10 0 6
-10 -8 -36 14 -29 25 2 4 2 7 -1 7 -3 0 -7 -4 -10 -9z"/>
<path d="M1085 1130 c-10 -16 6 -32 26 -27 11 3 16 1 13 -4 -3 -5 -2 -9 3 -8
23 4 24 -3 5 -23 -11 -13 -21 -26 -21 -30 -1 -5 -1 -14 -1 -20 0 -10 -2 -10
-8 0 -7 9 -13 8 -27 -8 -10 -11 -22 -17 -27 -14 -5 3 1 18 14 32 20 21 20 24
4 18 -10 -3 -25 -1 -33 5 -10 9 -17 9 -25 1 -9 -9 -7 -16 8 -30 10 -10 31 -33
46 -51 30 -34 53 -33 43 2 -5 20 -5 20 5 4 9 -15 8 -22 -6 -38 -26 -29 -8 -36
24 -8 62 54 112 104 112 111 0 4 -7 8 -15 8 -8 0 -39 20 -69 45 -61 49 -62 50
-71 35z m116 -93 c-5 -5 -24 -4 -42 1 l-34 10 42 -1 c23 -1 38 -6 34 -10z
m-31 -25 c0 -5 -8 -17 -19 -26 -17 -15 -19 -16 -25 -1 -3 9 -4 21 0 26 7 11
44 12 44 1z"/>
<path d="M1130 1000 c0 -5 4 -10 9 -10 6 0 13 5 16 10 3 6 -1 10 -9 10 -9 0
-16 -4 -16 -10z"/>
<path d="M1887 1134 c-12 -12 -8 -26 5 -18 7 5 8 3 3 -6 -5 -8 -3 -11 6 -8 8
3 14 11 14 18 0 15 -18 24 -28 14z"/>
<path d="M1017 1100 c-9 -11 -14 -20 -12 -20 3 0 0 -6 -7 -14 -7 -8 -17 -11
-22 -8 -5 3 -6 -1 -1 -8 6 -10 14 -7 31 13 14 16 26 23 29 16 4 -5 18 -15 32
-20 l26 -10 -24 -27 -24 -27 26 23 c14 12 29 20 32 17 4 -3 5 -2 2 2 -3 3 4
17 16 29 20 21 10 28 -17 12 -6 -4 -22 4 -34 17 -28 30 -31 30 -53 5z m103
-24 c0 -2 -6 -9 -14 -15 -11 -9 -16 -9 -22 0 -4 7 -3 9 4 5 6 -3 13 -2 17 4 6
10 15 14 15 6z"/>
<path d="M1935 1100 c-14 -16 -16 -23 -7 -32 10 -10 17 -7 33 9 12 11 18 26
15 32 -10 16 -21 14 -41 -9z"/>
<path d="M1857 1103 c-4 -3 1 -16 10 -27 18 -21 18 -21 -4 -3 -20 18 -22 18
-42 0 -25 -21 -27 -33 -5 -33 8 0 12 -5 9 -11 -5 -7 -13 -5 -25 6 -11 10 -24
15 -30 13 -6 -2 21 -34 60 -73 38 -38 73 -66 76 -62 4 4 0 15 -8 24 -13 16
-14 22 -1 48 12 27 13 18 2 -24 -7 -26 16 -20 40 10 l23 30 -23 25 c-12 13
-19 24 -14 24 5 0 -4 14 -20 30 -30 31 -37 35 -48 23z m34 -70 c12 -16 12 -17
-1 -7 -8 7 -24 14 -35 17 -19 4 -19 5 1 6 12 0 28 -7 35 -16z m-15 -28 c10
-26 -6 -38 -27 -19 -10 9 -16 21 -13 25 8 14 34 10 40 -6z"/>
<path d="M1845 1000 c3 -5 10 -10 16 -10 5 0 9 5 9 10 0 6 -7 10 -16 10 -8 0
-12 -4 -9 -10z"/>
<path d="M1986 1081 c-3 -4 3 -16 13 -25 15 -14 21 -15 27 -4 4 7 4 10 0 6
-10 -8 -36 14 -29 25 2 4 2 7 -1 7 -3 0 -7 -4 -10 -9z"/>
<path d="M1964 1046 c-5 -14 -9 -14 -23 -4 -11 9 -10 6 3 -9 15 -18 22 -20 38
-12 20 11 20 30 0 37 -7 2 -15 -4 -18 -12z"/>
<path d="M790 947 l-75 -11 45 -7 c25 -4 92 -10 150 -15 l104 -7 -15 24 c-14
20 -25 24 -75 25 -33 1 -93 -3 -134 -9z"/>
<path d="M2000 925 c-11 -13 -6 -15 36 -15 45 1 48 2 30 15 -25 19 -50 19 -66
0z"/>
<path d="M780 803 c0 -15 132 -117 209 -163 106 -63 245 -110 382 -129 l59 -8
0 109 0 108 -31 0 c-17 0 -72 13 -122 29 -77 24 -121 31 -273 41 -99 6 -190
13 -202 17 -12 3 -22 1 -22 -4z"/>
<path d="M2130 800 c-36 -5 -123 -11 -195 -15 -92 -5 -145 -12 -180 -26 -27
-11 -79 -25 -115 -32 l-65 -14 -3 -101 -3 -102 35 0 c19 0 66 7 103 14 170 36
305 102 451 219 60 49 75 68 50 66 -7 -1 -42 -5 -78 -9z"/>
</g>
</svg>
